<svg width="621" height="621" viewBox="0 0 621 621" fill="none" xmlns="http://www.w3.org/2000/svg">
<path d="M310.438 595.477C453.291 595.477 569.097 526.787 569.097 442.053C569.097 357.319 453.291 288.628 310.438 288.628C167.585 288.628 51.779 357.319 51.779 442.053C51.779 526.787 167.585 595.477 310.438 595.477Z" fill="#F0F0F0"/>
<path d="M429.37 551.089L138.154 387.447C136.653 386.468 135.404 385.15 134.509 383.598C133.613 382.047 133.096 380.306 133 378.517V351.354C133.096 349.565 133.613 347.824 134.509 346.272C135.404 344.721 136.653 343.402 138.154 342.424L263.186 270.239C264.783 269.425 266.549 269 268.341 269C270.133 269 271.899 269.425 273.495 270.239L564.71 433.869C566.211 434.847 567.46 436.165 568.356 437.717C569.251 439.269 569.768 441.01 569.865 442.799V469.961C569.768 471.75 569.251 473.491 568.356 475.043C567.46 476.594 566.211 477.913 564.71 478.891L439.678 551.089C438.08 551.897 436.315 552.319 434.524 552.319C432.733 552.319 430.967 551.897 429.37 551.089Z" fill="#1DB954"/>
<path d="M527.797 412.921L512.483 404.09C512.483 404.09 507.515 380.194 510.868 356.224C516.494 315.374 538.677 309.264 547.147 312.158C555.617 315.051 558.114 324.888 544.154 345.083C535.882 356.994 525.847 381.796 527.797 412.921Z" fill="#37474F"/>
<path d="M518.171 399.569H518.271C518.469 399.539 518.647 399.432 518.767 399.272C518.888 399.112 518.941 398.911 518.916 398.712C514.458 367.265 526.989 332.75 541.161 318.802C541.23 318.733 541.285 318.651 541.323 318.56C541.361 318.47 541.38 318.372 541.38 318.274C541.38 318.176 541.361 318.079 541.323 317.989C541.285 317.898 541.23 317.816 541.161 317.746C541.092 317.675 541.01 317.619 540.92 317.58C540.829 317.542 540.731 317.522 540.633 317.522C540.534 317.522 540.437 317.542 540.346 317.58C540.255 317.619 540.173 317.675 540.105 317.746C525.673 331.943 512.893 367.029 517.414 398.936C517.441 399.116 517.533 399.28 517.673 399.396C517.812 399.513 517.989 399.575 518.171 399.569Z" fill="white"/>
<path d="M556.176 429.216C557.89 430.073 562.386 426.173 563.628 425.229C565.801 423.58 567.512 421.398 568.596 418.895C569.797 416.056 570.088 412.914 569.429 409.903C569.079 408.312 568.619 406.747 568.05 405.221L566.522 400.65C565.901 399.198 565.588 397.634 565.603 396.055C565.827 392.875 568.509 390.528 570.944 388.491C573.639 386.23 576.421 383.299 576.197 379.511C575.849 376.586 574.538 373.86 572.471 371.761C570.546 369.563 568.286 367.65 566.51 365.315C565.137 363.692 564.353 361.652 564.287 359.527C564.397 358.225 564.769 356.958 565.38 355.801C566.622 353.317 568.224 350.908 569.006 348.213C569.789 345.518 569.478 342.214 567.317 340.425C565.529 338.96 562.995 338.885 560.71 339.183C558.566 339.57 556.532 340.417 554.748 341.667C548.923 345.331 545.868 352.647 539.62 355.553C537.211 356.683 534.528 357.043 531.995 357.863C529.461 358.683 526.915 360.124 525.847 362.57C523.524 367.923 529.014 373.028 525.126 378.232C523.884 379.847 522.357 381.151 521.077 382.691C517.463 387.063 515.861 391.646 516.879 398.737C517.229 401.292 518.132 403.74 519.524 405.911C520.916 408.081 522.764 409.923 524.94 411.306C524.94 411.306 555.916 429.067 556.176 429.216Z" fill="#455A64"/>
<path d="M539.608 420.621C539.807 420.602 539.99 420.506 540.118 420.352C540.246 420.199 540.308 420.001 540.291 419.802C537.459 390.13 549.718 356.547 559.406 346.462C559.483 346.392 559.545 346.307 559.588 346.212C559.631 346.117 559.654 346.014 559.656 345.91C559.657 345.805 559.637 345.702 559.597 345.606C559.557 345.51 559.497 345.423 559.421 345.351C559.346 345.279 559.257 345.223 559.159 345.187C559.061 345.151 558.956 345.136 558.852 345.143C558.748 345.149 558.647 345.177 558.554 345.224C558.461 345.272 558.379 345.338 558.313 345.418C548.439 355.702 535.957 389.845 538.801 419.938C538.809 420.036 538.836 420.132 538.881 420.219C538.925 420.307 538.987 420.384 539.062 420.448C539.137 420.511 539.224 420.559 539.318 420.589C539.411 420.619 539.51 420.63 539.608 420.621Z" fill="white"/>
<path d="M542.428 384.007H542.651C549.595 381.69 556.77 380.137 564.051 379.375C564.247 379.353 564.428 379.255 564.553 379.101C564.678 378.948 564.739 378.752 564.721 378.555C564.715 378.456 564.689 378.36 564.645 378.272C564.601 378.183 564.539 378.105 564.463 378.041C564.388 377.977 564.3 377.929 564.206 377.9C564.112 377.871 564.012 377.862 563.914 377.872C556.503 378.652 549.199 380.234 542.129 382.591C541.944 382.664 541.795 382.806 541.714 382.987C541.633 383.168 541.626 383.374 541.695 383.56C541.754 383.702 541.857 383.822 541.989 383.902C542.12 383.982 542.274 384.019 542.428 384.007Z" fill="white"/>
<path opacity="0.2" d="M569.253 444.181V471.356C569.155 473.143 568.638 474.882 567.742 476.432C566.847 477.981 565.598 479.298 564.098 480.274L439.066 552.459C437.483 553.308 435.708 553.735 433.912 553.701V514.628C435.708 514.658 437.481 514.23 439.066 513.386L564.098 441.2C566.769 439.66 566.943 437.239 564.62 435.587C565.977 436.59 567.096 437.88 567.897 439.366C568.698 440.852 569.161 442.496 569.253 444.181Z" fill="black"/>
<path opacity="0.1" d="M354.796 466.15V505.223C353 505.26 351.224 504.832 349.642 503.981L142.426 384.352C140.925 383.377 139.675 382.061 138.78 380.512C137.884 378.962 137.367 377.222 137.272 375.435V348.247C137.368 346.565 137.833 344.924 138.634 343.441C139.434 341.958 140.551 340.669 141.905 339.665C139.595 341.317 139.781 343.739 142.426 345.279L349.654 464.921C351.236 465.759 353.006 466.182 354.796 466.15Z" fill="black"/>
<path d="M217.965 389.655C215.245 388.078 212.711 388.016 210.649 389.221C209.954 389.618 207.06 391.258 206.315 391.705C204.067 393.096 202.415 396.027 201.769 400.2C201.034 399.075 200.148 398.055 199.136 397.17L199.881 396.747C201.372 395.878 202.08 393.692 202.08 390.748C202.08 383.57 198.751 379.223 194.528 376.788L186.927 372.479L183.363 374.528V370.417L177.774 367.2L173.601 369.61V378.304L167.974 361.512L162.385 358.295L158.262 360.655V364.728C156.126 357.711 152.176 351.638 147.643 349.017C146.598 348.297 145.379 347.873 144.114 347.787C142.848 347.702 141.583 347.96 140.452 348.533L140.29 348.62L136.204 350.967C134.08 352.01 131.099 355.774 131.099 363.859C131.099 374.876 136.216 386.377 143.519 390.562C146.339 392.189 148.86 392.276 150.884 391.096C151.58 390.686 154.287 389.121 154.958 388.749C156.463 387.834 157.638 386.464 158.312 384.836V398.424L163.901 401.641L168.074 399.231V390.537L173.601 407.255L179.19 410.471L182.754 408.422V412.533L192.057 417.899C194.342 419.227 196.193 419.426 197.534 418.669C198.267 418.271 201.086 416.619 201.782 416.185C202.276 415.907 202.701 415.521 203.024 415.054C205.048 422.146 208.96 428.294 213.841 431.126C216.561 432.691 219.008 432.815 220.995 431.772C221.778 431.362 224.597 429.673 225.268 429.288C228.385 427.586 230.348 422.941 230.348 416.222C230.298 405.28 224.771 393.593 217.965 389.655ZM148.823 380.34C148.391 380.207 147.975 380.028 147.581 379.806C143.01 377.161 141.259 370.529 141.259 364.902C141.204 362.955 141.525 361.015 142.203 359.189C142.638 359.308 143.055 359.484 143.445 359.711C147.779 362.195 149.742 368.976 149.742 374.615C149.788 376.563 149.476 378.504 148.823 380.34ZM192.516 406.745V403.193C193.554 404.469 194.132 406.057 194.156 407.702L192.516 406.745ZM219.194 420.979C218.76 420.846 218.343 420.663 217.952 420.432C213.382 417.799 211.631 411.154 211.631 405.528C211.576 403.581 211.896 401.641 212.575 399.815C213.005 399.946 213.422 400.12 213.817 400.337C218.164 402.821 220.114 409.602 220.114 415.241C220.159 417.193 219.848 419.138 219.194 420.979Z" fill="#1DB954"/>
<path d="M345.493 480.533L349.567 478.222L353.256 474.198C351.12 468.982 348.126 464.772 343.817 462.288C341.246 460.81 338.936 460.698 337.048 461.691C336.265 462.114 333.322 463.815 332.626 464.237C331.184 465.176 330.061 466.532 329.41 468.125V454.662L323.821 451.432L319.647 453.842V462.536L313.984 445.757L308.395 442.54L304.818 444.614V440.49L299.241 437.274L295.068 439.671V444.005C292.895 437.137 288.858 431.3 284.412 428.704L277.308 424.605L273.147 427.015V454.264L268.055 441.919L270.042 440.789C271.768 439.82 272.824 437.311 272.824 433.212C272.824 425.76 269.371 420.01 264.826 417.389L256.069 412.334L251.884 414.707V435.349L245.202 406.013L240.035 403.032L235.862 405.441L225.926 437.472L231.925 440.938L236.098 438.528L236.756 436.168L243.066 439.82L244.879 448.402L250.878 451.867L251.834 451.321V452.426L257.423 455.643L261.596 453.233V451.457L264.9 459.965L272.004 464.064L273.11 463.43V464.672L280.201 468.783C282.984 470.385 285.579 470.534 287.653 469.392L291.976 466.908C293.308 466.065 294.366 464.852 295.019 463.418V477.378L300.595 480.595L304.16 478.545V482.656L309.749 485.886L313.922 483.476V474.782L319.548 491.561L325.137 494.791L329.31 492.381V488.37C331.397 495.263 335.185 501.274 339.544 503.795C342.028 505.236 344.649 505.633 346.748 504.441C347.456 504.044 350.126 502.454 350.797 502.094C352.796 501.038 354.374 498.591 355.032 494.281V486.097L345.493 480.533ZM262.279 432.641L261.634 432.256V428.369C262.411 429.741 262.794 431.301 262.739 432.877V432.989L262.279 432.641ZM282.897 441.509C285.333 445.076 286.632 449.298 286.623 453.618C286.675 455.477 286.323 457.324 285.592 459.033C284.963 458.904 284.359 458.673 283.803 458.35L282.946 457.841L282.897 441.509ZM345.233 491.847C345.243 492.587 345.159 493.326 344.984 494.045C344.673 493.94 344.373 493.803 344.09 493.636C342.402 492.474 341.076 490.86 340.265 488.978L345.233 491.847ZM343.767 479.539L339.594 481.986V487.488C338.461 484.611 337.872 481.55 337.855 478.458C337.785 476.329 338.179 474.21 339.01 472.248C339.324 472.347 339.628 472.476 339.917 472.633C342.053 473.875 343.904 476.235 345.32 480.446L343.767 479.539Z" fill="#1DB954"/>
<path opacity="0.2" d="M213.792 392.065C220.598 395.99 226.125 407.689 226.125 418.706C226.125 425.425 224.162 430.07 221.033 431.772C221.914 431.3 224.572 429.722 225.218 429.362C228.336 427.661 230.298 423.016 230.298 416.296C230.298 405.28 224.771 393.58 217.965 389.655C215.245 388.078 212.711 388.016 210.649 389.221C209.954 389.618 207.06 391.258 206.315 391.705C208.377 390.425 210.985 390.438 213.792 392.065Z" fill="black"/>
<path opacity="0.3" d="M192.516 406.745V403.193C191.805 402.407 190.965 401.747 190.032 401.243L188.281 400.237V409.155L190.032 410.161C192.678 411.689 194.131 411.291 194.131 408.323C194.131 408.099 194.131 407.9 194.131 407.689L192.516 406.745Z" fill="black"/>
<path opacity="0.2" d="M173.551 392.922L173.601 392.959V378.254L167.974 361.474L162.385 358.258L158.225 360.667L163.801 363.884L173.551 392.922Z" fill="black"/>
<path opacity="0.1" d="M163.801 363.884L167.974 361.474L173.601 378.254V392.959L163.801 363.884Z" fill="black"/>
<path opacity="0.3" d="M192.504 390.922C192.519 389.673 192.176 388.445 191.516 387.384C190.856 386.324 189.906 385.474 188.778 384.936L188.331 384.687V392.822L188.778 393.083C191.187 394.474 192.504 394.077 192.504 390.922Z" fill="black"/>
<path opacity="0.2" d="M201.732 400.225C201.008 399.095 200.125 398.074 199.111 397.194L199.881 396.747C201.347 395.878 202.055 393.704 202.055 390.773C202.055 383.594 198.726 379.247 194.503 376.813L186.927 372.479L183.363 374.528V370.417L177.774 367.2L173.601 369.61L179.19 372.826V410.558L182.754 408.509V374.826L190.355 379.223C194.578 381.707 197.906 385.992 197.906 393.183C197.906 396.648 196.925 399.057 194.839 399.505C197.906 402.1 200.068 405.95 200.068 412.036C200.068 415.489 199.161 417.812 197.497 418.718C198.229 418.321 201.049 416.669 201.744 416.234C202.239 415.957 202.664 415.57 202.986 415.104C201.987 411.644 201.473 408.062 201.459 404.46C201.442 403.043 201.534 401.628 201.732 400.225Z" fill="black"/>
<path opacity="0.3" d="M217.965 420.432C213.394 417.799 211.643 411.154 211.643 405.528C211.588 403.581 211.909 401.641 212.587 399.815C212.773 399.877 212.959 399.939 213.158 400.026C209.296 398.324 207.47 402.609 207.47 407.938C207.47 413.564 209.221 420.209 213.792 422.842C216.512 424.407 218.25 423.326 219.194 420.979C218.765 420.845 218.352 420.662 217.965 420.432Z" fill="black"/>
<path opacity="0.2" d="M147.593 349.017C144.923 347.477 142.451 347.39 140.414 348.508L140.178 348.645L136.192 350.93C136.872 350.55 137.618 350.301 138.39 350.197C140.166 350.042 141.943 350.478 143.445 351.439C150.239 355.376 155.766 367.063 155.766 378.092C155.766 384.75 153.828 389.37 150.798 391.109C151.493 390.699 154.188 389.134 154.859 388.761C156.368 387.848 157.547 386.478 158.225 384.849V364.716C156.076 357.699 152.114 351.625 147.593 349.017Z" fill="black"/>
<path opacity="0.3" d="M141.271 364.902C141.217 362.955 141.537 361.015 142.215 359.189C142.405 359.244 142.592 359.311 142.774 359.388C138.912 357.699 137.098 361.971 137.098 367.312C137.098 372.938 138.849 379.57 143.42 382.216C146.128 383.781 147.866 382.688 148.823 380.34C148.391 380.207 147.975 380.028 147.581 379.806C143.023 377.161 141.271 370.529 141.271 364.902Z" fill="black"/>
<path opacity="0.2" d="M268.067 441.919L270.042 440.789C271.768 439.82 272.824 437.311 272.824 433.212C272.824 425.76 269.371 420.01 264.826 417.389L256.069 412.334L251.884 414.707L260.652 419.762C265.186 422.382 268.638 428.17 268.638 435.585C268.638 441.248 266.614 443.881 263.67 443.608L272.104 464.076L273.209 463.443V454.227L268.067 441.919Z" fill="black"/>
<path opacity="0.3" d="M339.023 472.273L339.432 472.422C336.228 471.044 333.694 474.645 333.694 480.868C333.694 487.09 336.489 494.095 339.904 496.082C342.09 497.324 344.251 496.815 344.972 494.083C344.66 493.977 344.361 493.84 344.078 493.673C342.389 492.511 341.063 490.897 340.252 489.015L339.582 488.618V487.488C338.449 484.611 337.859 481.55 337.843 478.458C337.784 476.335 338.187 474.225 339.023 472.273Z" fill="black"/>
<path opacity="0.2" d="M284.424 428.704L277.32 424.605L273.159 427.015L280.251 431.113C286.97 434.988 292.609 446.117 292.609 457.096C292.609 463.828 290.51 468.15 287.343 469.628L287.716 469.466L292.038 466.982C293.37 466.14 294.428 464.927 295.081 463.492V444.005C292.907 437.137 288.908 431.3 284.424 428.704Z" fill="black"/>
<path opacity="0.3" d="M282.909 457.878V441.546C282.04 440.286 280.914 439.224 279.605 438.429L278.736 437.932V460.288L279.605 460.785C282.263 462.325 284.375 461.517 285.555 459.071C284.925 458.941 284.322 458.71 283.766 458.388L282.909 457.878Z" fill="black"/>
<path opacity="0.3" d="M257.473 455.693L261.646 453.283V451.507L257.473 440.789V455.693Z" fill="black"/>
<path opacity="0.2" d="M309.811 448.178L319.548 477.229L319.61 477.266V462.561L313.984 445.769L308.395 442.552L304.83 444.614V440.49L299.254 437.274L295.081 439.683L300.657 442.9V480.632L304.222 478.583V444.962L309.811 448.178Z" fill="black"/>
<path opacity="0.3" d="M233.788 434.479L231.975 440.975L236.148 438.578L236.806 436.218L233.788 434.479Z" fill="black"/>
<path opacity="0.3" d="M238.421 418.631L235.688 428.033L241.215 431.225L238.483 418.669L238.421 418.631Z" fill="black"/>
<path opacity="0.3" d="M309.811 462.499V485.911V485.923L313.984 483.513V474.795L309.873 462.536L309.811 462.499Z" fill="black"/>
<path opacity="0.2" d="M329.372 468.113V454.662L323.783 451.433L319.61 453.842L325.199 457.071V494.803L329.372 492.394V488.382C328.271 484.817 327.698 481.109 327.671 477.378C327.57 474.204 328.15 471.044 329.372 468.113Z" fill="black"/>
<path opacity="0.2" d="M245.214 406.075L240.035 403.081L235.874 405.491L241.041 408.472L250.928 451.917L251.884 451.37V435.386L245.214 406.075Z" fill="black"/>
<path opacity="0.3" d="M261.646 432.293V428.368C260.759 427.045 259.544 425.975 258.119 425.263L257.473 424.891V434.827L258.119 435.199C260.205 436.441 262.702 437.683 262.751 433.051L262.292 432.802L261.646 432.293Z" fill="black"/>
<path opacity="0.2" d="M345.493 480.532L349.567 478.222L353.256 474.198C351.12 468.982 348.126 464.771 343.817 462.287C341.246 460.81 338.936 460.698 337.048 461.691C336.34 462.076 333.856 463.517 332.875 464.088C334.775 463.095 337.073 463.219 339.644 464.697C343.953 467.181 346.947 471.391 349.083 476.595L345.431 480.669C345.405 480.605 345.384 480.538 345.369 480.47L343.817 479.576L339.594 481.986L350.909 488.519V496.678C350.263 500.951 348.698 503.398 346.723 504.466H346.797C347.505 504.068 350.176 502.479 350.846 502.118C352.846 501.063 354.423 498.616 355.082 494.306V486.121L345.493 480.532Z" fill="black"/>
<path opacity="0.1" d="M158.262 384.812V364.716C157.989 363.797 157.666 362.89 157.33 362.009L153.157 364.393C154.862 368.749 155.758 373.378 155.803 378.055C155.803 384.712 153.865 389.333 150.835 391.071C151.53 390.661 154.238 389.097 154.909 388.724C156.414 387.809 157.588 386.439 158.262 384.812Z" fill="black"/>
<path opacity="0.1" d="M179.19 372.764L183.363 370.355V374.466L182.754 374.826V408.434L179.19 410.496V372.764Z" fill="black"/>
<path opacity="0.1" d="M241.041 408.472L245.214 406.075L251.884 435.386V451.37L250.928 451.917L241.041 408.472Z" fill="black"/>
<path opacity="0.1" d="M268.067 441.919L265.943 443.161C265.258 443.61 264.43 443.787 263.621 443.657L272.054 464.126L273.159 463.492V454.277L268.067 441.919Z" fill="black"/>
<path opacity="0.1" d="M304.83 440.49L300.657 442.9V480.632L304.222 478.583V444.962L304.83 444.614V440.49Z" fill="black"/>
<path opacity="0.1" d="M309.811 448.179L313.984 445.769L319.61 462.561V477.266L309.811 448.179Z" fill="black"/>
<path opacity="0.1" d="M349.046 476.595L353.219 474.186L349.567 478.26L345.394 480.669L349.046 476.595Z" fill="black"/>
<path opacity="0.1" d="M350.921 496.679C350.275 500.951 348.71 503.398 346.735 504.466H346.81C347.518 504.069 350.188 502.479 350.859 502.119C352.859 501.063 354.436 498.616 355.094 494.306V486.122L350.921 488.531V496.679Z" fill="black"/>
<path opacity="0.1" d="M292.609 457.096C292.609 463.828 290.51 468.15 287.343 469.628L287.716 469.466L292.038 466.982C293.37 466.14 294.428 464.927 295.081 463.492V444.005C294.845 443.273 294.596 442.552 294.323 441.857L290.15 444.254C291.74 448.35 292.573 452.702 292.609 457.096Z" fill="black"/>
<path opacity="0.1" d="M230.298 416.296C230.244 411.801 229.404 407.349 227.814 403.144L223.641 405.553C225.23 409.759 226.071 414.21 226.125 418.706C226.125 425.425 224.162 430.07 221.033 431.772C221.914 431.3 224.572 429.722 225.218 429.362C228.336 427.661 230.298 423.016 230.298 416.296Z" fill="black"/>
<path opacity="0.1" d="M200.068 412.036C200.068 415.489 199.161 417.812 197.497 418.718C198.229 418.321 201.049 416.669 201.744 416.234C202.239 415.957 202.664 415.57 202.986 415.104C201.987 411.644 201.473 408.062 201.459 404.46C201.455 403.042 201.559 401.627 201.769 400.225C201.045 399.095 200.162 398.074 199.149 397.194L195.783 399.144H195.659C195.605 399.181 195.546 399.21 195.485 399.231C195.287 399.338 195.073 399.414 194.851 399.455C197.907 402.1 200.068 406.013 200.068 412.036Z" fill="black"/>
<path opacity="0.3" d="M163.801 378.204V401.616L167.974 399.206V390.5L163.863 378.229L163.801 378.204Z" fill="black"/>
<path opacity="0.1" d="M325.199 457.071V494.803L329.372 492.394V488.382C328.271 484.817 327.698 481.109 327.671 477.378C327.572 474.207 328.152 471.053 329.372 468.125V454.662L325.199 457.071Z" fill="black"/>
<path d="M143.42 351.427C150.226 355.364 155.753 367.051 155.753 378.08C155.753 389.109 150.462 394.599 143.42 390.5C136.179 386.314 131 374.814 131 363.797C131 352.78 136.676 347.539 143.42 351.427ZM143.42 382.216C147.879 384.787 149.717 380.229 149.717 374.602C149.717 368.976 147.755 362.182 143.42 359.698C139.085 357.214 137.098 361.673 137.098 367.299C137.098 372.926 138.849 379.57 143.42 382.216Z" fill="#1DB954"/>
<path d="M163.801 401.616L158.212 398.399V360.655L163.801 363.884L173.539 392.922V369.548L179.128 372.764V410.496L173.539 407.279L163.801 378.229V401.616Z" fill="#1DB954"/>
<path d="M190.355 379.223C194.578 381.707 197.907 385.992 197.907 393.183C197.907 396.648 196.925 399.057 194.839 399.504C197.907 402.1 200.068 405.95 200.068 412.036C200.068 418.122 197.136 420.867 192.057 417.923L182.754 412.558V374.826L190.355 379.223ZM188.79 393.083C191.187 394.474 192.516 394.077 192.516 390.922C192.531 389.673 192.189 388.445 191.528 387.384C190.868 386.324 189.918 385.474 188.79 384.936L188.343 384.687V392.822L188.79 393.083ZM190.032 410.161C192.678 411.688 194.131 411.291 194.131 408.323C194.213 406.871 193.868 405.428 193.14 404.17C192.412 402.912 191.331 401.895 190.032 401.243L188.281 400.237V409.155L190.032 410.161Z" fill="#1DB954"/>
<path d="M213.792 392.065C220.598 395.99 226.125 407.689 226.125 418.706C226.125 429.722 220.834 435.237 213.792 431.126C206.551 426.953 201.446 415.439 201.446 404.423C201.446 393.406 207.06 388.165 213.792 392.065ZM213.792 422.842C218.251 425.413 220.089 420.854 220.089 415.228C220.089 409.602 218.139 402.808 213.792 400.324C209.445 397.84 207.47 402.299 207.47 407.925C207.47 413.551 209.184 420.209 213.792 422.842Z" fill="#1DB954"/>
<path d="M250.928 451.966L244.929 448.501L243.115 439.919L233.788 434.529L231.975 441.037L225.976 437.572L235.912 405.541L241.078 408.521L250.928 451.966ZM238.508 418.718H238.445L235.713 428.12L241.24 431.312L238.508 418.718Z" fill="#1DB954"/>
<path d="M260.652 419.799C265.186 422.419 268.638 428.207 268.638 435.622C268.638 441.285 266.614 443.918 263.67 443.645L272.104 464.113L264.999 460.015L257.547 440.789V455.693L251.958 452.476V414.707L260.652 419.799ZM258.168 435.075C260.28 436.317 262.801 437.559 262.801 432.815C262.801 428.07 260.317 426.419 258.168 425.201L257.523 424.829V434.765L258.168 435.075Z" fill="#1DB954"/>
<path d="M280.251 431.113C286.97 434.988 292.609 446.117 292.609 457.096C292.609 468.075 286.995 472.745 280.251 468.845L273.159 464.747V427.015L280.251 431.113ZM279.605 460.785C283.729 463.169 286.548 459.952 286.585 453.656C286.623 447.359 283.704 440.788 279.605 438.429L278.736 437.932V460.288L279.605 460.785Z" fill="#1DB954"/>
<path d="M300.657 480.632L295.081 477.415V439.671L300.657 442.9V480.632Z" fill="#1DB954"/>
<path d="M309.786 485.923L304.197 482.694V444.962L309.786 448.241L319.523 477.291H319.585V453.842L325.174 457.071V494.803L319.585 491.574L309.848 462.536H309.786V485.923Z" fill="#1DB954"/>
<path d="M350.921 496.679C349.58 505.472 344.413 506.615 339.606 503.783C333.011 499.97 327.671 488.146 327.671 477.353C327.671 466.56 332.713 460.698 339.606 464.672C343.916 467.156 346.909 471.367 349.045 476.571L345.394 480.644C343.966 476.297 342.103 473.888 339.929 472.634C336.489 470.646 333.719 474.298 333.719 480.843C333.719 487.388 336.514 494.07 339.929 496.058C342.612 497.598 345.245 496.467 345.245 491.847L339.594 488.618V481.986L350.908 488.519L350.921 496.679Z" fill="#1DB954"/>
<path opacity="0.1" d="M234.041 373.012C266.568 373.012 292.937 357.787 292.937 339.006C292.937 320.225 266.568 305 234.041 305C201.514 305 175.146 320.225 175.146 339.006C175.146 357.787 201.514 373.012 234.041 373.012Z" fill="black"/>
<path opacity="0.1" d="M331.186 432.433C367.74 432.433 397.372 415.323 397.372 394.216C397.372 373.11 367.74 356 331.186 356C294.633 356 265 373.11 265 394.216C265 415.323 294.633 432.433 331.186 432.433Z" fill="black"/>
<path opacity="0.1" d="M440.186 492.433C476.74 492.433 506.372 475.323 506.372 454.216C506.372 433.11 476.74 416 440.186 416C403.633 416 374 433.11 374 454.216C374 475.323 403.633 492.433 440.186 492.433Z" fill="black"/>
<path d="M318.412 106.983C310.215 108.598 304.912 112.92 303.148 125.762C301.049 141.188 297.696 164.898 297.696 164.898C297.696 164.898 286.804 195.762 281.252 202.692C279.655 204.543 277.883 206.236 275.961 207.747C270.856 214.143 258.983 218.403 264.373 222.005C268.509 224.762 274.756 225.309 280.668 222.005C288.654 217.559 291.921 212.429 295.883 205.859C300.851 197.674 317.903 167.047 317.903 167.047L318.412 106.983Z" fill="#C99999"/>
<path d="M283.227 199.649C282.171 201.413 278.532 201.847 275.067 202.543C271.601 203.238 268.944 205.275 266.534 205.772C264.46 206.194 265.056 208.666 268.757 208.865C272.458 209.063 276.818 206.244 277.538 208.865C278.259 211.485 285.102 204.344 283.227 199.649Z" fill="#C99999"/>
<path d="M290.467 182.907L288.257 188.049C291.796 188.285 300.403 192.582 301.919 195.501L304.962 190.21L290.467 182.907Z" fill="#EBEBEB"/>
<path d="M318.412 106.983C318.412 106.983 310.079 106.723 306.055 113.876C302.03 121.03 297.05 164.798 297.05 164.798L289.014 185.18C292.405 184.944 302.788 190.235 304.129 193.451L318.139 170.499L318.412 106.983Z" fill="#37474F"/>
<path d="M368.862 373.144H356.703V393.96H368.862V373.144Z" fill="#B16668"/>
<path d="M320.387 364.189L308.24 364.599L307.632 342.578L320.387 342.156V364.189Z" fill="#B16668"/>
<path d="M368.415 197.19C368.415 208.803 367.943 303.679 367.943 303.679C368.229 307.02 371.446 312.969 371.669 325.004C372.042 342.392 369.359 383.552 369.359 383.552C367.26 384.585 364.96 385.144 362.621 385.192C360.282 385.239 357.961 384.772 355.821 383.825C355.821 383.825 346.271 325.675 344.085 308.411C342.184 293.333 336.893 225.719 336.893 225.719L327.591 290.029C329.002 296.368 329.513 302.874 329.106 309.355C328.535 317.341 321.132 357.358 321.132 357.358C319.015 358.556 316.661 359.274 314.235 359.46C311.81 359.647 309.373 359.298 307.098 358.439C307.098 358.439 306.377 295.618 306.228 288.291C306.067 279.932 307.98 194.681 307.98 194.681L368.415 197.19Z" fill="#37474F"/>
<path d="M356.703 387.961V386.222C356.045 386.222 355.648 386.856 355.399 388.421C355.213 389.539 355.051 390.396 354.679 391.861C354.143 393.986 353.433 396.063 352.555 398.071C350.841 402.306 349.4 403.884 345.463 408.839C344.135 410.212 342.891 411.664 341.737 413.186C341.004 414.49 340.744 418.154 341.986 418.974C346.581 422.029 353.549 422.116 358.479 420.663C360.32 420.154 361.974 419.125 363.245 417.7C364.516 416.275 365.35 414.514 365.646 412.627C365.82 411.509 365.757 410.354 365.882 409.224C366.314 406.662 367.357 404.242 368.925 402.17C369.842 400.974 370.629 399.683 371.272 398.319C372.29 395.835 371.471 393.016 370.812 390.52C370.253 388.371 369.645 386.011 368.912 386.21C368.912 386.471 368.912 387.539 368.912 387.539C368.03 388.52 365.584 389.489 362.826 389.588C361.001 389.675 356.691 389.315 356.703 387.961Z" fill="#263238"/>
<path d="M308.116 360.848C308.116 361.171 306.986 362.165 305.632 363.332C304.3 364.483 302.907 365.561 301.459 366.561C298.499 368.723 295.391 370.674 292.156 372.399C288.319 374.51 284.854 375.79 280.258 377.864C279.789 378.059 279.365 378.351 279.016 378.721C278.734 379.047 278.541 379.44 278.457 379.863C278.321 380.731 278.43 381.619 278.77 382.428C279.109 383.237 279.668 383.936 280.382 384.446C281.82 385.456 283.453 386.154 285.176 386.496C289.074 387.594 293.181 387.718 297.137 386.856C300.394 385.88 303.469 384.378 306.241 382.409C308.705 380.67 311.505 379.464 314.463 378.87C317.046 378.497 320.213 378.621 322.449 377.081C324.933 375.367 323.939 371.716 323.244 368.574C322.474 365.146 321.517 359.793 320.375 360.029V361.271C318.922 363.481 311.37 364.388 308.166 362.761L308.116 360.848Z" fill="#263238"/>
<path d="M336.918 225.719C330.627 223.745 324.845 220.417 319.977 215.969C319.977 215.969 323.244 222.092 332.969 227.78L328.261 286.465L336.918 225.719Z" fill="#263238"/>
<path d="M347.326 108.114C351.462 109.107 359.808 110.473 361.671 118.72C363.919 128.656 364.652 150.168 364.652 150.168L365.422 198.134C357.051 204.232 324.56 207.548 306.936 194.681C306.936 194.681 310.824 137.09 310.824 128.122C310.824 119.155 315.792 108.399 329.566 107.592L347.326 108.114Z" fill="#F5F5F5"/>
<path d="M329.715 106.673C326.53 110.574 324.203 115.102 322.884 119.962C321.219 127.216 319.642 209.535 319.642 209.535C319.642 209.535 310.24 208.393 306.216 205.238C306.216 205.238 305.396 137.959 307.073 127.501C310.066 109.008 309.843 107.17 329.715 105.431V106.673Z" fill="#455A64"/>
<path d="M350.953 105.431C350.953 105.431 339.489 112.473 339.365 140.53C339.253 164.774 339.626 213.013 339.626 213.013C339.626 213.013 358.653 214.255 370.676 207.014C370.676 207.014 368.192 176.386 368.005 159.259C372.973 134.941 377.321 111.231 370.328 109.306C363.336 107.381 350.953 105.431 350.953 105.431Z" fill="#455A64"/>
<path d="M352.232 120.807L346.991 127.303L349.611 134.705L342.718 152.379L351.04 134.705L348.121 127.725L352.232 120.807Z" fill="#37474F"/>
<path d="M315.22 118.72L316.363 125.44L311.817 131.351L318.139 151.261L313.246 131.575L317.444 126.048L315.22 118.72Z" fill="#37474F"/>
<path d="M344.37 66.0968C344.373 69.4037 343.394 72.637 341.559 75.3878C339.723 78.1386 337.113 80.2832 334.059 81.5504C331.004 82.8176 327.643 83.1504 324.399 82.5068C321.155 81.8631 318.175 80.2719 315.836 77.9345C313.497 75.597 311.904 72.6183 311.258 69.3751C310.612 66.1319 310.942 62.77 312.207 59.7146C313.472 56.6592 315.614 54.0476 318.364 52.2101C321.113 50.3726 324.346 49.3918 327.653 49.3918C332.084 49.3918 336.335 51.1514 339.469 54.2839C342.604 57.4163 344.367 61.6652 344.37 66.0968Z" fill="#263238"/>
<path d="M356.542 77.9828C356.542 77.9828 353.834 90.7009 352.741 92.7874C352.021 94.0817 350.828 95.0474 349.413 95.4826L349.611 86.5277L356.542 77.9828Z" fill="#263238"/>
<path d="M353.139 59.7502C354.078 59.6484 355.028 59.7598 355.918 60.0759C356.808 60.392 357.616 60.9047 358.281 61.5759C360.516 63.8612 359.262 70.9903 356.492 77.9827L351.388 78.5665L353.139 59.7502Z" fill="#263238"/>
<path d="M349.91 78.5664C350.928 79.175 352.394 77.2127 353.636 75.8961C354.878 74.5796 359.013 72.7787 361.088 77.1381C363.162 81.4976 359.274 87.3722 356.033 88.3907C350.444 90.1419 349.611 86.5649 349.611 86.5649L349.189 109.38C345.327 114.348 336.657 120.161 331.987 119.316C328.261 118.646 327.442 112.349 331.006 108.225V100.041C328.528 100.45 326.013 100.592 323.505 100.463C319.394 99.8295 316.798 96.5879 315.568 92.1415C313.68 85.3478 313.084 77.7219 314.5 65.1777C316.251 49.7645 334.273 49.6278 343.936 55.7136C353.598 61.7994 349.91 78.5664 349.91 78.5664Z" fill="#C99999"/>
<path d="M349.909 80.2929C350.419 80.2929 352.393 77.0512 353.635 75.8962C355.399 74.294 353.126 59.7502 353.126 59.7502C353.733 58.4707 353.938 57.038 353.717 55.6397C353.495 54.2413 352.856 52.9425 351.884 51.9132C349.475 49.2429 346.097 46.0012 335.142 47.2929C327.317 48.2244 318.81 50.6587 311.942 47.2929C311.308 49.5335 311.357 51.9123 312.082 54.1249C312.808 56.3374 314.177 58.2831 316.015 59.7129C316.015 59.7129 318.499 61.3151 325.045 62.11C331.086 62.5661 337.158 62.4496 343.178 61.7622C345.078 61.5138 345.476 63.352 346.506 68.3697C347.438 72.7788 348.183 80.2556 349.909 80.2929Z" fill="#263238"/>
<path d="M353.126 60.8804L359.336 57.5643C359.139 57.1479 358.859 56.776 358.513 56.4711C358.167 56.1662 357.763 55.9348 357.325 55.7907C356.887 55.6467 356.425 55.5932 355.966 55.6333C355.506 55.6734 355.06 55.8064 354.654 56.0242C353.831 56.4889 353.215 57.2491 352.931 58.1507C352.648 59.0524 352.718 60.0282 353.126 60.8804Z" fill="#263238"/>
<path d="M331.019 100.016C331.019 100.016 340.197 98.1653 343.439 96.4637C345.32 95.4807 346.861 93.9526 347.86 92.0795C347.387 93.9509 346.543 95.7081 345.376 97.2462C343.029 100.239 331.081 102.636 331.081 102.636L331.019 100.016Z" fill="#9A4A4D"/>
<path d="M330.149 75.7596C330.166 76.1189 330.288 76.4654 330.5 76.756C330.712 77.0467 331.005 77.2687 331.342 77.3946C331.679 77.5205 332.046 77.5447 332.396 77.4642C332.747 77.3838 333.066 77.2022 333.315 76.942C333.563 76.6818 333.73 76.3545 333.794 76.0005C333.858 75.6465 333.817 75.2814 333.676 74.9506C333.534 74.6197 333.299 74.3376 332.999 74.1392C332.699 73.9408 332.347 73.8349 331.987 73.8345C331.489 73.8475 331.016 74.0573 330.671 74.418C330.327 74.7786 330.139 75.261 330.149 75.7596Z" fill="#263238"/>
<path d="M331.727 70.3693L335.651 72.5428C335.93 71.9978 335.984 71.3656 335.803 70.7809C335.622 70.1963 335.22 69.7054 334.683 69.413C334.426 69.2785 334.146 69.1966 333.858 69.1719C333.569 69.1473 333.279 69.1805 333.003 69.2696C332.728 69.3587 332.473 69.5018 332.254 69.6907C332.035 69.8795 331.856 70.1103 331.727 70.3693Z" fill="#263238"/>
<path d="M331.851 88.9745L327.653 90.527C327.745 90.8087 327.893 91.0691 328.088 91.2926C328.282 91.5161 328.52 91.6981 328.786 91.8279C329.053 91.9577 329.343 92.0325 329.639 92.048C329.935 92.0635 330.231 92.0193 330.51 91.918C331.066 91.6906 331.515 91.2593 331.764 90.7123C332.013 90.1652 332.044 89.5437 331.851 88.9745Z" fill="#9A4A4D"/>
<path d="M315.196 71.7355L319.319 69.8725C319.217 69.5933 319.059 69.338 318.854 69.1224C318.649 68.9068 318.402 68.7355 318.129 68.6191C317.855 68.5027 317.561 68.4436 317.263 68.4456C316.966 68.4476 316.672 68.5105 316.4 68.6305C315.832 68.8861 315.387 69.355 315.161 69.9361C314.936 70.5171 314.948 71.1635 315.196 71.7355Z" fill="#263238"/>
<path d="M316.053 75.7596C316.07 76.1189 316.192 76.4654 316.404 76.756C316.616 77.0467 316.908 77.2687 317.246 77.3946C317.583 77.5205 317.949 77.5447 318.3 77.4642C318.65 77.3838 318.97 77.2022 319.218 76.942C319.467 76.6818 319.633 76.3545 319.697 76.0005C319.762 75.6465 319.72 75.2814 319.579 74.9506C319.438 74.6197 319.202 74.3376 318.902 74.1392C318.602 73.9408 318.251 73.8349 317.891 73.8345C317.392 73.8475 316.919 74.0573 316.575 74.418C316.23 74.7786 316.043 75.261 316.053 75.7596Z" fill="#263238"/>
<path d="M324.784 74.766L324.188 85.8198L318.412 83.845L324.784 74.766Z" fill="#9A4A4D"/>
<path d="M325.306 118.025C326.436 120.695 328.51 121.751 332.286 122.21C334.18 122.344 336.081 122.092 337.874 121.469C339.668 120.845 341.316 119.864 342.718 118.584L339.154 115.032L332.074 118.397L330.149 113.877L325.306 118.025Z" fill="#37474F"/>
<path d="M328.262 116.609C327.719 118.206 327.508 119.896 327.641 121.577C327.818 123.096 328.397 124.541 329.317 125.762C329.912 126.144 330.588 126.382 331.29 126.457C331.993 126.533 332.704 126.444 333.366 126.197C334.576 125.161 335.548 123.875 336.214 122.428C336.881 120.981 337.227 119.407 337.229 117.814L332.074 118.397L328.262 116.609Z" fill="#455A64"/>
<path d="M329.317 125.762C325.305 141.486 322.884 168.239 323.368 170.934C323.852 173.629 326.87 183.354 329.193 183.354C331.515 183.354 335.602 173.729 335.291 171.269C334.707 166.587 332.397 125.738 333.366 126.16L329.317 125.762Z" fill="#455A64"/>
<path d="M333.366 126.197C332.712 126.486 331.994 126.598 331.283 126.522C330.573 126.446 329.895 126.184 329.317 125.762L329.181 126.284C329.684 126.81 330.323 127.184 331.027 127.367C331.732 127.549 332.473 127.531 333.167 127.315L333.366 126.197Z" fill="#37474F"/>
<path d="M332.074 118.397C339.352 114.734 348.146 109.381 349.313 103.493L349.375 100.215C349.375 100.215 352.232 101.121 352.977 105.928C352.356 113.131 347.351 120.534 340.843 124.247L337.229 117.851L332.074 118.397Z" fill="#E0E0E0"/>
<path d="M331.031 102.276C329.858 102.758 328.843 103.558 328.1 104.586C323.741 110.399 324.15 120.335 324.15 120.335L328.261 116.609L332.074 118.447C330.652 115.246 330.278 111.677 331.006 108.25L331.031 102.276Z" fill="#E0E0E0"/>
<path d="M370.316 109.356C376.004 110.821 379.767 111.281 383.667 118.72C387.058 125.191 402.707 152.254 406.023 158.75C407.687 161.967 409.339 165.643 404.943 170.102C401.415 173.654 378.202 195.451 374.414 199.177C371.69 202.065 367.989 203.836 364.031 204.145C358.132 204.667 355.25 202.58 354.207 201.301C347.997 193.613 359.92 192.446 364.031 189.899C365.934 188.735 367.637 187.272 369.074 185.565L368.825 181.491C368.825 181.491 373.172 181.491 374.563 180.386C375.954 179.28 388.337 163.184 388.337 163.184C388.337 163.184 370.626 139.872 368.353 134.991C366.08 130.11 363.497 113.107 370.316 109.356Z" fill="#C99999"/>
<path d="M377.743 175.691L374.899 179.591C374.786 182.077 375.61 184.514 377.209 186.422C378.86 188.542 380.987 190.244 383.419 191.39L387.145 187.8L377.743 175.691Z" fill="#EBEBEB"/>
<path d="M376.103 177.181C376.103 177.181 377.022 187.39 385.828 190.21C385.828 190.21 406.768 170.226 408.731 167.518C410.693 164.811 409.327 161.967 405.116 154.577C400.906 147.187 384.363 117.019 381.618 113.877C378.873 110.734 374.439 110.151 368.068 108.784C364.953 114.494 364.013 121.139 365.422 127.489C367.906 137.698 370.179 140.406 370.179 140.406L386.437 163.445L376.103 177.181Z" fill="#37474F"/>
<path d="M436.412 164.983C428.215 166.598 422.912 170.92 421.148 183.762C419.049 199.188 415.696 222.898 415.696 222.898C415.696 222.898 404.804 253.762 399.252 260.692C397.655 262.543 395.883 264.236 393.961 265.747C388.856 272.143 376.983 276.403 382.373 280.005C386.509 282.762 392.756 283.309 398.668 280.005C406.654 275.559 409.921 270.429 413.883 263.859C418.851 255.674 435.903 225.047 435.903 225.047L436.412 164.983Z" fill="#FFBDA7"/>
<path d="M401.227 257.649C400.171 259.413 396.532 259.847 393.067 260.543C389.601 261.238 386.944 263.275 384.534 263.772C382.46 264.194 383.056 266.666 386.757 266.865C390.458 267.063 394.818 264.244 395.538 266.865C396.259 269.485 403.102 262.344 401.227 257.649Z" fill="#FFBDA7"/>
<path d="M408.467 240.907L406.257 246.049C409.796 246.285 418.403 250.582 419.919 253.501L422.962 248.21L408.467 240.907Z" fill="#EBEBEB"/>
<path d="M436.412 164.983C436.412 164.983 428.079 164.723 424.055 171.876C420.03 179.03 415.05 222.798 415.05 222.798L407.014 243.18C410.405 242.944 420.788 248.235 422.129 251.451L436.139 228.499L436.412 164.983Z" fill="#37474F"/>
<path d="M486.862 431.144H474.703V451.96H486.862V431.144Z" fill="#B16668"/>
<path d="M438.387 422.189L426.24 422.599L425.632 400.578L438.387 400.156V422.189Z" fill="#B16668"/>
<path d="M486.415 255.19C486.415 266.803 485.943 361.679 485.943 361.679C486.229 365.02 489.446 370.969 489.669 383.004C490.042 400.392 487.359 441.552 487.359 441.552C485.26 442.585 482.96 443.144 480.621 443.192C478.282 443.239 475.961 442.772 473.821 441.825C473.821 441.825 464.271 383.675 462.085 366.411C460.184 351.333 454.893 283.719 454.893 283.719L445.591 348.029C447.002 354.368 447.513 360.874 447.106 367.355C446.535 375.341 439.132 415.358 439.132 415.358C437.015 416.556 434.661 417.274 432.235 417.46C429.81 417.647 427.373 417.298 425.098 416.439C425.098 416.439 424.377 353.618 424.228 346.291C424.067 337.932 425.98 252.681 425.98 252.681L486.415 255.19Z" fill="#37474F"/>
<path d="M474.703 445.961V444.222C474.045 444.222 473.648 444.856 473.399 446.421C473.213 447.539 473.051 448.396 472.679 449.861C472.143 451.986 471.433 454.063 470.555 456.071C468.841 460.306 467.4 461.884 463.463 466.839C462.135 468.212 460.891 469.664 459.737 471.186C459.004 472.49 458.744 476.154 459.986 476.974C464.581 480.029 471.549 480.116 476.479 478.663C478.32 478.154 479.974 477.125 481.245 475.7C482.516 474.275 483.35 472.514 483.646 470.627C483.82 469.509 483.757 468.354 483.882 467.224C484.314 464.662 485.357 462.242 486.925 460.17C487.842 458.974 488.629 457.683 489.272 456.319C490.29 453.835 489.471 451.016 488.812 448.52C488.253 446.371 487.645 444.011 486.912 444.21C486.912 444.471 486.912 445.539 486.912 445.539C486.03 446.52 483.584 447.489 480.826 447.588C479.001 447.675 474.691 447.315 474.703 445.961Z" fill="#263238"/>
<path d="M426.116 418.848C426.116 419.171 424.986 420.165 423.632 421.332C422.3 422.483 420.907 423.561 419.459 424.561C416.499 426.723 413.391 428.674 410.156 430.399C406.319 432.51 402.854 433.79 398.258 435.864C397.789 436.059 397.365 436.351 397.016 436.721C396.734 437.047 396.541 437.44 396.457 437.863C396.321 438.731 396.43 439.619 396.77 440.428C397.109 441.237 397.668 441.936 398.382 442.446C399.82 443.456 401.453 444.154 403.176 444.496C407.074 445.594 411.181 445.718 415.137 444.856C418.394 443.88 421.469 442.378 424.241 440.409C426.705 438.67 429.505 437.464 432.463 436.87C435.046 436.497 438.213 436.621 440.449 435.081C442.933 433.367 441.939 429.716 441.244 426.574C440.474 423.146 439.517 417.793 438.375 418.029V419.271C436.922 421.481 429.37 422.388 426.166 420.761L426.116 418.848Z" fill="#263238"/>
<path d="M454.918 283.719C448.627 281.745 442.845 278.417 437.977 273.969C437.977 273.969 441.244 280.092 450.969 285.78L446.261 344.465L454.918 283.719Z" fill="#263238"/>
<path d="M465.326 166.114C469.462 167.107 477.808 168.473 479.671 176.72C481.919 186.656 482.652 208.168 482.652 208.168L483.422 256.134C475.051 262.232 442.56 265.548 424.936 252.681C424.936 252.681 428.824 195.09 428.824 186.122C428.824 177.155 433.792 166.399 447.566 165.592L465.326 166.114Z" fill="#F5F5F5"/>
<path d="M447.715 164.673C444.53 168.574 442.203 173.102 440.884 177.962C439.219 185.216 437.642 267.535 437.642 267.535C437.642 267.535 428.24 266.393 424.216 263.238C424.216 263.238 423.396 195.959 425.073 185.501C428.066 167.008 427.843 165.17 447.715 163.431V164.673Z" fill="#455A64"/>
<path d="M468.953 163.431C468.953 163.431 457.489 170.473 457.365 198.53C457.253 222.774 457.626 271.013 457.626 271.013C457.626 271.013 476.653 272.255 488.676 265.014C488.676 265.014 486.192 234.386 486.005 217.259C490.973 192.941 495.321 169.231 488.328 167.306C481.336 165.381 468.953 163.431 468.953 163.431Z" fill="#455A64"/>
<path d="M470.232 178.807L464.991 185.303L467.611 192.705L460.718 210.379L469.04 192.705L466.121 185.725L470.232 178.807Z" fill="#37474F"/>
<path d="M433.22 176.72L434.363 183.44L429.817 189.351L436.139 209.261L431.246 189.575L435.444 184.048L433.22 176.72Z" fill="#37474F"/>
<path d="M462.37 124.097C462.373 127.404 461.394 130.637 459.559 133.388C457.723 136.139 455.113 138.283 452.059 139.55C449.004 140.818 445.643 141.15 442.399 140.507C439.155 139.863 436.175 138.272 433.836 135.934C431.497 133.597 429.904 130.618 429.258 127.375C428.612 124.132 428.942 120.77 430.207 117.715C431.472 114.659 433.614 112.048 436.364 110.21C439.113 108.373 442.346 107.392 445.653 107.392C450.084 107.392 454.335 109.151 457.469 112.284C460.604 115.416 462.367 119.665 462.37 124.097Z" fill="#263238"/>
<path d="M474.542 135.983C474.542 135.983 471.834 148.701 470.741 150.787C470.021 152.082 468.828 153.047 467.413 153.482L467.611 144.528L474.542 135.983Z" fill="#263238"/>
<path d="M471.139 117.75C472.078 117.648 473.028 117.76 473.918 118.076C474.808 118.392 475.616 118.905 476.281 119.576C478.516 121.861 477.262 128.99 474.492 135.983L469.388 136.566L471.139 117.75Z" fill="#263238"/>
<path d="M467.91 136.566C468.928 137.175 470.394 135.213 471.636 133.896C472.878 132.58 477.013 130.779 479.088 135.138C481.162 139.498 477.274 145.372 474.033 146.391C468.444 148.142 467.611 144.565 467.611 144.565L467.189 167.38C463.327 172.348 454.657 178.161 449.987 177.316C446.261 176.646 445.442 170.349 449.006 166.225V158.041C446.528 158.45 444.013 158.592 441.505 158.463C437.394 157.829 434.798 154.588 433.568 150.142C431.68 143.348 431.084 135.722 432.5 123.178C434.251 107.764 452.273 107.628 461.936 113.714C471.598 119.799 467.91 136.566 467.91 136.566Z" fill="#FFBDA7"/>
<path d="M467.909 138.293C468.419 138.293 470.393 135.051 471.635 133.896C473.399 132.294 471.126 117.75 471.126 117.75C471.732 116.471 471.938 115.038 471.717 113.64C471.495 112.241 470.856 110.942 469.884 109.913C467.475 107.243 464.096 104.001 453.142 105.293C445.317 106.224 445 103 437 105.293C432.5 106.583 431.774 110.287 432.5 112.5C433.226 114.713 432.177 116.283 434.015 117.713C434.015 117.713 436.499 119.315 443.045 120.11C449.086 120.566 455.158 120.45 461.178 119.762C463.078 119.514 463.475 121.352 464.506 126.37C465.438 130.779 466.183 138.256 467.909 138.293Z" fill="#263238"/>
<path d="M471.126 118.88L477.336 115.564C477.139 115.148 476.859 114.776 476.513 114.471C476.167 114.166 475.763 113.935 475.325 113.791C474.887 113.647 474.425 113.593 473.966 113.633C473.506 113.673 473.06 113.806 472.654 114.024C471.831 114.489 471.215 115.249 470.931 116.151C470.648 117.052 470.718 118.028 471.126 118.88Z" fill="#263238"/>
<path d="M449.019 158.016C449.019 158.016 458.197 156.165 461.439 154.464C463.32 153.481 464.861 151.953 465.86 150.079C465.387 151.951 464.543 153.708 463.376 155.246C461.029 158.239 449.081 160.636 449.081 160.636L449.019 158.016Z" fill="#9A4A4D"/>
<path d="M448.149 133.76C448.166 134.119 448.288 134.465 448.5 134.756C448.712 135.047 449.005 135.269 449.342 135.395C449.679 135.52 450.046 135.545 450.396 135.464C450.747 135.384 451.066 135.202 451.315 134.942C451.563 134.682 451.73 134.354 451.794 134C451.858 133.646 451.817 133.281 451.676 132.951C451.534 132.62 451.299 132.338 450.999 132.139C450.699 131.941 450.347 131.835 449.987 131.834C449.489 131.847 449.016 132.057 448.671 132.418C448.327 132.779 448.139 133.261 448.149 133.76Z" fill="#263238"/>
<path d="M449.727 128.369L453.651 130.543C453.93 129.998 453.984 129.365 453.803 128.781C453.622 128.196 453.22 127.705 452.683 127.413C452.426 127.278 452.146 127.196 451.858 127.172C451.569 127.147 451.279 127.18 451.003 127.269C450.728 127.359 450.473 127.502 450.254 127.691C450.035 127.879 449.856 128.11 449.727 128.369Z" fill="#263238"/>
<path d="M449.851 146.974L445.653 148.527C445.745 148.809 445.893 149.069 446.088 149.292C446.282 149.516 446.52 149.698 446.786 149.828C447.053 149.958 447.343 150.032 447.639 150.048C447.935 150.063 448.231 150.019 448.51 149.918C449.066 149.69 449.515 149.259 449.764 148.712C450.013 148.165 450.044 147.544 449.851 146.974Z" fill="#9A4A4D"/>
<path d="M433.196 129.735L437.319 127.872C437.217 127.593 437.059 127.338 436.854 127.122C436.649 126.907 436.402 126.735 436.129 126.619C435.855 126.503 435.561 126.444 435.263 126.445C434.966 126.447 434.672 126.51 434.4 126.63C433.832 126.886 433.387 127.355 433.161 127.936C432.936 128.517 432.948 129.163 433.196 129.735Z" fill="#263238"/>
<path d="M434.053 133.76C434.07 134.119 434.192 134.465 434.404 134.756C434.616 135.047 434.908 135.269 435.246 135.395C435.583 135.52 435.949 135.545 436.3 135.464C436.65 135.384 436.97 135.202 437.218 134.942C437.467 134.682 437.633 134.354 437.697 134C437.762 133.646 437.72 133.281 437.579 132.951C437.438 132.62 437.202 132.338 436.902 132.139C436.602 131.941 436.251 131.835 435.891 131.834C435.392 131.847 434.919 132.057 434.575 132.418C434.23 132.779 434.043 133.261 434.053 133.76Z" fill="#263238"/>
<path d="M442.784 132.766L442.188 143.82L436.412 141.845L442.784 132.766Z" fill="#9A4A4D"/>
<path d="M443.306 176.025C444.436 178.695 446.51 179.751 450.286 180.21C452.18 180.344 454.081 180.092 455.874 179.468C457.668 178.845 459.316 177.864 460.718 176.584L457.154 173.032L450.074 176.397L448.149 171.876L443.306 176.025Z" fill="#37474F"/>
<path d="M446.262 174.609C445.719 176.206 445.508 177.896 445.641 179.577C445.818 181.096 446.397 182.541 447.317 183.762C447.912 184.144 448.588 184.382 449.29 184.457C449.993 184.533 450.704 184.444 451.366 184.197C452.576 183.161 453.548 181.875 454.214 180.428C454.881 178.981 455.227 177.407 455.229 175.814L450.074 176.397L446.262 174.609Z" fill="#455A64"/>
<path d="M447.317 183.762C443.305 199.486 440.884 226.239 441.368 228.934C441.852 231.629 444.87 241.354 447.193 241.354C449.515 241.354 453.602 231.729 453.291 229.269C452.707 224.587 450.397 183.738 451.366 184.16L447.317 183.762Z" fill="#455A64"/>
<path d="M451.366 184.197C450.712 184.486 449.994 184.598 449.283 184.522C448.573 184.446 447.895 184.184 447.317 183.762L447.181 184.284C447.684 184.81 448.323 185.184 449.027 185.367C449.732 185.549 450.473 185.531 451.167 185.315L451.366 184.197Z" fill="#37474F"/>
<path d="M450.074 176.397C457.352 172.733 466.146 167.38 467.313 161.493L467.375 158.214C467.375 158.214 470.232 159.121 470.977 163.928C470.356 171.131 465.351 178.534 458.843 182.247L455.229 175.851L450.074 176.397Z" fill="#E0E0E0"/>
<path d="M449.031 160.276C447.858 160.758 446.843 161.558 446.1 162.586C441.741 168.399 442.15 178.335 442.15 178.335L446.261 174.609L450.074 176.447C448.652 173.246 448.278 169.677 449.006 166.25L449.031 160.276Z" fill="#E0E0E0"/>
<path d="M488.316 167.356C494.004 168.821 497.767 169.281 501.667 176.72C505.058 183.191 520.707 210.254 524.023 216.75C525.687 219.967 527.339 223.643 522.943 228.102C519.415 231.654 496.202 253.451 492.414 257.177C489.69 260.065 485.989 261.836 482.031 262.145C476.132 262.667 473.25 260.58 472.207 259.301C465.997 251.613 477.92 250.445 482.031 247.899C483.934 246.735 485.637 245.272 487.074 243.565L486.825 239.491C486.825 239.491 491.172 239.491 492.563 238.386C493.954 237.28 506.337 221.184 506.337 221.184C506.337 221.184 488.626 197.872 486.353 192.99C484.08 188.109 481.497 171.106 488.316 167.356Z" fill="#FFBDA7"/>
<path d="M495.743 233.691L492.899 237.591C492.786 240.077 493.61 242.514 495.209 244.422C496.86 246.542 498.987 248.244 501.419 249.39L505.145 245.8L495.743 233.691Z" fill="#EBEBEB"/>
<path d="M494.103 235.181C494.103 235.181 495.022 245.39 503.828 248.21C503.828 248.21 524.768 228.226 526.731 225.518C528.693 222.811 527.327 219.967 523.116 212.577C518.906 205.187 502.363 175.019 499.618 171.877C496.873 168.734 492.439 168.151 486.068 166.784C482.953 172.494 482.013 179.139 483.422 185.489C485.906 195.698 488.179 198.406 488.179 198.406L504.437 221.445L494.103 235.181Z" fill="#37474F"/>
<path d="M222.293 310.368C222.369 311.652 222.043 312.928 221.362 314.019C219.653 316.861 217.637 319.505 215.351 321.906C212.134 325.371 207.315 329.457 203.862 332.463C201.949 334.14 201.875 336.673 204.62 337.555C209.733 338.812 215.134 338.061 219.71 335.456C223.138 333.618 228.019 325.11 230.888 323.819C234.155 322.341 235.993 321.596 237.098 320.093C238.75 317.832 239.172 316.143 237.756 313.51C236.216 310.641 233.894 306.207 232.937 306.692L233.235 307.611C232.49 309.958 226.094 312.69 222.815 312.032L222.293 310.368Z" fill="#37474F"/>
<path d="M247.332 326.265V324.688C247.022 327.085 243.842 334.45 239.495 338.425C236.03 341.579 231.31 345.218 230.106 348.733C228.901 352.248 235.682 353.85 240.153 353.403C244.5 352.87 248.504 350.773 251.418 347.504C254.263 344.249 254.213 342.014 255.542 340.225C256.871 338.437 259.926 336.412 260.647 334.338C261.044 333.196 260.572 330.699 260.013 328.588C259.454 326.476 258.957 324.514 258.299 324.688V325.93C256.735 327.156 254.797 327.809 252.809 327.781C251.207 327.805 247.32 327.483 247.332 326.265Z" fill="#37474F"/>
<path d="M265.316 211.368C266.919 195.657 270.135 170.73 266.558 153.131C248.4 150.386 230.416 147.927 212.059 145.679C207.638 168.482 205.526 229.216 207.849 237.723C214.283 263.805 217.574 283.28 221.412 309.287C221.767 311.027 221.466 312.836 220.567 314.367C219.112 316.902 217.37 319.261 215.376 321.397C213.835 323.036 212.382 324.862 210.718 326.464C210.552 326.624 210.423 326.818 210.339 327.032C210.256 327.246 210.22 327.477 210.234 327.706C210.544 330.19 214.134 329.793 216.642 328.948C219.819 327.758 222.569 325.648 224.541 322.887C226.218 320.751 229.509 316.888 231.248 314.603C231.941 313.728 232.549 312.788 233.062 311.796C233.647 310.493 233.766 309.028 233.397 307.648C233.328 307.286 233.279 306.922 233.248 306.555C233.149 302.99 236.701 264.19 235.645 255.335C234.49 245.722 233.161 242.989 229.944 234.954C232.205 218.398 234.341 200.836 236.552 184.032C236.937 202.19 237.011 222.906 239.346 240.332C241.209 254.279 242.116 263.93 243.594 277.592C245.01 290.695 246.724 314.852 246.885 318.441C247.023 320.707 246.956 322.981 246.686 325.235C245.598 330.258 243.109 334.87 239.508 338.536C238.675 339.294 237.769 340.077 236.862 340.871C235.024 342.921 235.546 344.709 239.868 345.082C244.19 345.454 248.003 342.846 251.282 338.872C252.747 337.083 258.299 327.917 258.299 326.054C258.299 325.508 258.299 324.999 258.299 324.552C258.333 321.138 258.636 317.733 259.206 314.367C261.019 303.636 264.919 284.286 265.565 275.704C266.596 262.042 265.565 255.447 262.1 244.654C263.416 231.24 263.751 226.632 265.316 211.368Z" fill="#FFA8A7"/>
<path d="M214.519 136.053C211.419 147.739 209.321 159.669 208.246 171.711C206.669 190.788 205.017 229.588 205.762 233.414C206.508 237.239 217.698 285.23 217.698 285.23C220.66 286.676 224.002 287.15 227.249 286.584C229.97 285.997 232.541 284.855 234.8 283.23C234.8 283.23 237.21 261.408 236.316 252.901C235.421 244.393 231.161 234.271 231.161 234.271L236.564 183.957C236.564 183.957 235.893 213.889 237.558 231.389C239.222 248.889 244.761 289.664 244.761 289.664C245.836 290.848 247.153 291.786 248.624 292.414C250.094 293.042 251.683 293.346 253.281 293.303C256.819 293.256 260.296 292.375 263.429 290.732C263.429 290.732 265.391 281.64 266.211 274.462C267.367 264.652 266.349 254.709 263.23 245.337C263.23 245.337 267.366 197.619 268.819 187.199C270.272 176.778 274.023 158.086 262.112 140.785C260.957 140.301 214.519 136.053 214.519 136.053Z" fill="#37474F"/>
<path d="M236.564 183.957V181.709C236.564 181.709 225.386 178.207 220.008 171.289C220.008 171.289 222.579 177.859 233.67 183.957C233.67 183.957 233.434 213.417 233.459 213.107C233.484 212.796 236.564 183.957 236.564 183.957Z" fill="#263238"/>
<path d="M208.333 87.6524C204.347 99.3893 197.689 133.11 197.689 133.11C197.689 133.11 185.269 151.23 181.022 156.434C178.898 159.055 174.303 164.259 174.303 164.259L184.698 172.431C192.225 163.737 203.577 152.199 208.296 146.213C210.532 143.344 212.395 140.885 212.991 138.363L217.723 108.369C217.723 108.369 217.723 84.3984 221.449 81.2437C225.175 78.089 226.169 77.4432 226.169 77.4432C221.362 77.1079 211.463 78.4741 208.333 87.6524Z" fill="#FFA8A7"/>
<path d="M228.243 77.1079C221.759 76.3627 213.463 76.4869 209.414 83.7401C205.365 90.9934 198.621 128.353 198.621 128.353C198.621 128.353 204.992 133.321 211.886 133.234L228.243 77.1079Z" fill="#455A64"/>
<path d="M210.221 112.008C211.393 117.591 211.848 123.301 211.575 128.999C211.053 136.451 205.725 150.237 205.725 150.237C205.725 150.237 209.923 154.05 221.35 152.261C230.64 150.808 227.361 122.764 222.02 117.336C218.906 114.128 214.688 112.223 210.221 112.008Z" fill="#37474F"/>
<path d="M244.848 77.6419C244.848 77.6419 260.373 79.4304 262.236 80.2625C247.68 90.4966 259.467 113.287 259.467 113.287L253.89 130.762C257.467 135.358 260.771 138.86 263.553 142.698C265.721 145.59 267.472 148.771 268.757 152.149C272.483 161.874 230.938 177.325 208.259 159.415C209.166 153.789 210.606 147.939 211.898 142.698C213.674 135.432 215.189 129.309 214.68 126.465C208.159 106.382 207.762 102.768 208.917 98.2839C212.171 85.6776 225.063 77.1699 228.193 77.1699L244.848 77.6419Z" fill="#1DB954"/>
<path d="M244.848 77.6418C244.848 77.6418 259.38 78.8838 262.236 80.2625C265.093 81.6411 269.825 89.801 265.577 101.712C261.33 113.623 257.492 127.608 257.926 130.427C258.361 133.246 268.483 147.815 268.483 147.815C265.54 149.715 262.423 151.69 259.168 152.286L253.952 140.922L255.194 152.957C255.194 152.957 245.867 155.217 239.197 154.646C239.185 154.646 234.254 108.468 244.848 77.6418Z" fill="#455A64"/>
<path d="M207.998 73.3073H232.043C235.804 73.3073 239.529 72.5665 243.003 71.1272C246.478 69.6879 249.636 67.5782 252.295 64.9187C254.955 62.2592 257.064 59.1019 258.504 55.627C259.943 52.1522 260.684 48.4279 260.684 44.6668C260.68 37.6812 257.904 30.9828 252.964 26.0432C248.025 21.1037 241.326 18.3273 234.341 18.324C230.881 18.324 227.456 19.0054 224.26 20.3292C221.064 21.6531 218.16 23.5935 215.714 26.0396C213.268 28.4858 211.327 31.3898 210.003 34.5858C208.679 37.7819 207.998 41.2074 207.998 44.6668V73.3073Z" fill="#263238"/>
<path d="M218.071 30.2223C215.276 31.8617 211.861 38.9163 212.184 53.5346C212.469 65.9546 216.506 69.0348 218.53 69.929C220.555 70.8233 224.455 70.2768 228.243 69.6434V77.0954C228.243 77.0954 223.001 83.1812 223.275 86.6091C223.548 90.037 230.838 90.8319 235.695 87.4909C240.551 84.1499 244.736 77.6294 244.736 77.6294L244.662 60.4774C244.662 60.4774 246.885 62.6385 250.673 59.3348C253.803 56.6024 254.859 51.9946 252.424 49.5105C251.792 48.9181 251.028 48.4848 250.195 48.2466C249.362 48.0084 248.484 47.9722 247.634 48.1409C246.784 48.3097 245.987 48.6786 245.308 49.217C244.629 49.7554 244.088 50.4478 243.73 51.2369C243.73 51.2369 241.619 45.3871 232.875 42.5429C225.113 39.972 220.828 36.9912 218.071 30.2223Z" fill="#FFA8A7"/>
<path d="M226.405 49.9081C226.402 50.2148 226.491 50.5155 226.658 50.7726C226.825 51.0297 227.065 51.2319 227.346 51.3541C227.627 51.4763 227.939 51.5131 228.241 51.4599C228.543 51.4067 228.823 51.2659 229.045 51.055C229.268 50.844 229.424 50.5723 229.494 50.2735C229.563 49.9747 229.543 49.662 229.437 49.3744C229.33 49.0867 229.141 48.8368 228.893 48.6557C228.646 48.4745 228.35 48.3702 228.044 48.3556C227.621 48.3455 227.211 48.5031 226.904 48.7939C226.597 49.0848 226.418 49.4853 226.405 49.9081Z" fill="#263238"/>
<path d="M225.647 60.9495L222.02 62.1045C222.084 62.3483 222.197 62.5766 222.352 62.7755C222.507 62.9744 222.7 63.1398 222.921 63.2617C223.142 63.3836 223.385 63.4595 223.635 63.4848C223.886 63.51 224.14 63.4841 224.38 63.4086C224.869 63.2436 225.275 62.8947 225.512 62.4357C225.748 61.9766 225.797 61.4436 225.647 60.9495Z" fill="#F28F8F"/>
<path d="M213.749 46.182L216.916 43.9837C216.784 43.7708 216.61 43.5872 216.404 43.4441C216.199 43.3009 215.966 43.2013 215.721 43.1513C215.475 43.1013 215.222 43.1019 214.977 43.1532C214.732 43.2045 214.5 43.3054 214.295 43.4496C213.871 43.7484 213.579 44.1984 213.477 44.7068C213.375 45.2152 213.472 45.7432 213.749 46.182Z" fill="#263238"/>
<path d="M230.615 46.7658L227.448 44.5675C227.582 44.3556 227.758 44.1731 227.965 44.0308C228.171 43.8886 228.405 43.7896 228.651 43.7397C228.896 43.6898 229.15 43.6901 229.396 43.7406C229.641 43.7911 229.874 43.8907 230.081 44.0334C230.502 44.3341 230.793 44.785 230.892 45.2932C230.991 45.8015 230.892 46.3285 230.615 46.7658Z" fill="#263238"/>
<path d="M214.581 49.5603C214.579 49.8665 214.667 50.1666 214.834 50.4233C215.001 50.68 215.239 50.8822 215.52 51.0046C215.801 51.1271 216.111 51.1645 216.413 51.1122C216.714 51.06 216.994 50.9203 217.217 50.7106C217.44 50.5009 217.597 50.2303 217.668 49.9324C217.739 49.6344 217.721 49.3223 217.616 49.0346C217.511 48.7468 217.324 48.4962 217.078 48.3137C216.832 48.1312 216.538 48.0248 216.233 48.0078C215.809 47.9977 215.397 48.1549 215.088 48.4454C214.779 48.7359 214.597 49.1364 214.581 49.5603Z" fill="#263238"/>
<path d="M222.12 48.3804L221.871 57.7947L216.916 56.2547L222.12 48.3804Z" fill="#F28F8F"/>
<path d="M228.243 69.6433C232.242 69.1093 240.476 66.7495 241.756 63.4333C241.24 65.0773 240.235 66.5246 238.874 67.5816C236.39 69.693 228.243 72.0652 228.243 72.0652V69.6433Z" fill="#F28F8F"/>
<path d="M281.885 134.364C283.027 127.508 281.885 125.273 279.463 118.553L265.987 126.428C265.987 126.428 267.962 131.483 267.8 134.364C267.689 136.326 265.006 155.962 262.472 162.806C262.014 164.013 261.131 165.012 259.988 165.613C256.92 167.252 255.604 169.053 253.244 171.214C251.381 172.903 249.878 173.251 250.065 173.847C250.355 174.506 250.884 175.03 251.545 175.316C252.206 175.602 252.95 175.627 253.629 175.387C255.142 174.904 256.592 174.246 257.951 173.425C256.748 176.008 255.138 178.382 253.182 180.455C248.723 185.211 248.326 188.304 256.635 188.95C261.826 189.347 266.211 186.466 270.905 175.288C272.368 171.178 273.571 166.98 274.507 162.719C277.016 152.87 280.73 141.245 281.885 134.364Z" fill="#FFA8A7"/>
<path d="M262.224 80.2625C268.074 82.8955 270.048 87.9504 273.067 95.8868C275.886 103.339 282.133 126.105 282.133 126.105C282.133 126.105 275.054 133.097 266.931 131.073L256.573 105.798C256.573 105.798 251.704 89.2794 262.224 80.2625Z" fill="#37474F"/>
<path d="M52.3631 415.752C51.4813 416.087 50.972 417.764 50.5746 421.85C50.3262 424.334 49.4692 427.724 53.3318 429.774C54.7438 430.502 56.3121 430.875 57.9008 430.86C59.4894 430.845 61.0504 430.442 62.4481 429.687C65.7891 427.613 66.8324 422.881 70.7571 419.751C74.1975 417.056 79.7243 414.36 81.6495 410.2C83.2392 406.772 83.2392 401.866 77.5384 402.127C70.5956 402.45 66.6585 407.927 61.9513 408.039C59.3183 408.138 53.2573 415.429 52.3631 415.752Z" fill="#263238"/>
<path d="M52.3755 413.74V417.863C52.3755 419.875 60.9453 422.831 63.3423 418.273C63.5286 417.875 64.4601 412.237 64.4601 412.237L52.3755 413.74Z" fill="#FFBDA7"/>
<path d="M92.0822 439.747C92.0822 439.747 90.4552 439.747 89.8218 446.392C89.5734 448.876 88.9648 454.117 89.8218 456.005C90.6787 457.892 95.3735 458.712 100.627 459.184C104.552 459.532 108.079 461.432 111.718 463.481C115.158 465.422 119.022 466.488 122.971 466.586C127.939 466.586 132.149 466.09 135.689 463.283C137.577 461.792 139.961 458.65 138.173 456.29C137.446 455.569 136.52 455.081 135.515 454.887C133.304 454.067 131.081 453.309 128.821 452.602C125.452 451.611 122.164 450.365 118.984 448.876C114.351 446.59 109.185 444.032 105.682 440.119L92.0822 439.747Z" fill="#263238"/>
<path d="M92.107 436.307C92.107 436.307 92.107 439.362 92.107 441.113C92.107 442.864 94.1439 445.473 99.4845 445.311C103.21 445.199 105.856 444.206 105.694 441.113V436.654L92.107 436.307Z" fill="#FFBDA7"/>
<path d="M49.9783 359.042C50.9247 351.75 52.5888 344.57 54.9463 337.605C54.9463 337.605 53.5677 319.074 52.9591 301.512C52.4085 283.518 52.9103 265.508 54.462 247.572C54.462 247.572 114.078 241.909 115.109 263.843C116.14 285.776 114.674 341.555 113.867 351.18C113.06 360.805 112.327 369.81 110.29 387.744C108.539 403.17 105.707 436.654 105.707 436.654C103.578 437.729 101.216 438.259 98.8322 438.199C96.4483 438.138 94.1165 437.488 92.0449 436.307C92.0449 436.307 87.5488 391.346 87.0769 380.243C86.4062 365.836 89.772 357.887 89.772 357.887C89.772 357.887 88.53 348.833 86.2696 330.203C84.7047 317.037 82.6181 302.046 82.6181 302.046C82.6181 302.046 80.5812 320.602 79.3392 330.948C78.1966 340.536 76.2466 348.112 73.3652 365.985C70.8812 381.497 64.0626 414.311 64.0626 414.311C57.0453 418.037 52.3506 413.74 52.3506 413.74C52.3506 413.74 48.016 372.493 49.9783 359.042Z" fill="#37474F"/>
<path d="M82.6429 302.034L79.8236 283.727C79.8236 283.727 68.2109 280.001 62.299 273.12C62.299 273.12 65.4537 281.168 76.2715 285.54L80.6061 300.966L81.3513 313.696L82.6429 302.034Z" fill="#263238"/>
<path d="M66.733 174.108C57.4304 171.86 51.5433 176.368 48.103 189.012C45.1594 199.867 40.8497 222.322 39.173 230.706C38.552 233.811 37.3348 237.375 43.8677 241.288C53.3414 246.77 63.1193 251.709 73.1541 256.08L76.7311 242.704L62.299 213.107L66.733 174.108Z" fill="#1DB954"/>
<path opacity="0.25" d="M66.733 174.108C57.4304 171.86 51.5433 176.368 48.103 189.012C45.1594 199.867 40.8497 222.322 39.173 230.706C38.552 233.811 37.3348 237.375 43.8677 241.288C53.3414 246.77 63.1193 251.709 73.1541 256.08L76.7311 242.704L62.299 213.107L66.733 174.108Z" fill="black"/>
<path d="M92.4424 168.159L89.6603 187.745L72.0363 187.137L73.7379 164.259L92.4424 168.159Z" fill="#FFBDA7"/>
<path d="M105.086 143.99C105.086 143.99 109.818 150.92 109.296 151.615C108.775 152.311 105.396 152.982 105.396 152.982L105.086 143.99Z" fill="#F0997A"/>
<path d="M97.696 142.847C97.6789 141.71 97.9994 140.593 98.617 139.638C99.2345 138.683 100.121 137.933 101.165 137.482C102.209 137.031 103.364 136.899 104.482 137.104C105.601 137.309 106.634 137.841 107.45 138.633C108.266 139.425 108.829 140.441 109.068 141.553C109.307 142.665 109.21 143.823 108.791 144.88C108.372 145.938 107.649 146.847 106.713 147.493C105.777 148.139 104.671 148.493 103.533 148.51C102.778 148.522 102.028 148.385 101.326 148.106C100.624 147.828 99.9836 147.414 99.4415 146.888C98.8994 146.362 98.4663 145.734 98.1668 145.041C97.8673 144.348 97.7073 143.602 97.696 142.847ZM98.938 142.847C98.9528 143.731 99.2295 144.591 99.733 145.318C100.237 146.045 100.944 146.606 101.767 146.931C102.589 147.255 103.49 147.329 104.354 147.142C105.218 146.955 106.008 146.516 106.622 145.88C107.237 145.245 107.65 144.441 107.808 143.571C107.966 142.701 107.862 141.804 107.51 140.992C107.158 140.181 106.574 139.492 105.831 139.013C105.087 138.534 104.219 138.287 103.335 138.301C102.157 138.33 101.039 138.823 100.223 139.672C99.4069 140.521 98.9585 141.657 98.9752 142.834L98.938 142.847Z" fill="#263238"/>
<path d="M91.9704 124.813C101.335 126.639 104.105 130.7 105.21 145.53C106.378 161.017 104.875 165.911 102.875 168.035C101.521 169.463 93.883 169.836 90.008 168.842C85.1642 167.6 74.1973 163.874 68.9685 156.174C62.7585 147.094 61.0446 134.687 67.3912 129.483C76.346 122.155 88.1574 124.08 91.9704 124.813Z" fill="#FFBDA7"/>
<path d="M92.2933 169.239C96.3298 169.674 101.745 169.239 102.875 167.997C98.3667 168.283 92.8398 166.023 92.8398 166.023L92.2933 169.239Z" fill="#F0997A"/>
<path d="M106.663 128.551L106.378 128.85C104.527 130.663 102.142 131.83 100.168 133.544C98.0616 135.453 96.5594 137.935 95.8454 140.686C95.2368 142.946 95.0257 145.654 92.5914 146.697C92.5914 146.697 90.9519 140.723 85.9094 141.555C80.8669 142.387 80.2583 148.895 83.5248 152.733C86.7912 156.571 89.7348 155.056 89.7348 155.056C89.7348 155.056 89.7348 163.638 86.0088 168.544C86.0088 168.544 81.7114 170.009 73.7378 168.444C68.7698 167.476 61.827 161.489 58.8338 155.068C52.4748 141.481 51.8538 129.185 60.5229 125.347C61.3675 119.038 66.2858 116.131 71.9245 114.74C80.3577 112.666 88.3561 117.56 96.69 115.56C98.4412 115.138 100.13 114.48 101.906 114.231C102.105 114.175 102.316 114.175 102.515 114.231C102.95 114.442 102.925 115.051 102.813 115.473C102.387 117.157 101.565 118.716 100.416 120.019C103.626 120.159 106.835 119.704 109.88 118.678C110.104 120.459 109.932 122.267 109.376 123.974C108.82 125.681 107.894 127.244 106.663 128.551Z" fill="#263238"/>
<path d="M61.7898 128.452L56.1512 125.248C56.3616 124.877 56.6428 124.552 56.9789 124.291C57.315 124.029 57.6993 123.836 58.1098 123.723C58.5204 123.61 58.9492 123.579 59.3718 123.632C59.7944 123.685 60.2024 123.82 60.5727 124.03C60.9429 124.241 61.2681 124.522 61.5296 124.858C61.7912 125.194 61.984 125.579 62.097 125.989C62.21 126.4 62.2411 126.829 62.1884 127.251C62.1357 127.674 62.0002 128.082 61.7898 128.452Z" fill="#263238"/>
<path d="M92.7156 150.05L92.4423 143.567C92.868 143.549 93.2931 143.615 93.6932 143.762C94.0934 143.908 94.4608 144.132 94.7745 144.42C95.0882 144.708 95.342 145.056 95.5215 145.442C95.701 145.829 95.8026 146.247 95.8205 146.672C95.8385 147.098 95.7724 147.523 95.6261 147.923C95.4798 148.323 95.256 148.691 94.9677 149.004C94.6794 149.318 94.3321 149.572 93.9457 149.751C93.5593 149.931 93.1413 150.033 92.7156 150.05Z" fill="#263238"/>
<path d="M108.638 141.481L91.2997 144.002L92.02 145.207L108.663 142.785L108.638 141.481Z" fill="#263238"/>
<path d="M52.5865 184.354C54.6483 176.306 57.5545 173.686 64.547 173.499C68.1564 173.745 71.748 174.205 75.3027 174.878C76.0355 178.269 84.8164 180.579 93.6967 178.741C96.3422 179.511 103.335 181.423 105.521 182.218C111.805 184.491 114.86 191.024 115.27 211.741C115.27 211.741 116.512 260.874 115.27 269.357C99.4224 275.567 82.9783 275.256 73.8868 273.232C54.9836 268.997 52.7728 261.135 52.7728 261.135C52.7728 261.135 53.7664 241.412 54.3999 226.421C53.4559 216.87 52.0276 209.691 51.5184 202.065C51.0527 196.141 51.4122 190.18 52.5865 184.354Z" fill="#1DB954"/>
<path d="M159.846 180.964C161.373 177.089 163.572 170.183 167.223 165.464C170.875 160.744 172.191 157.279 173.595 159.341C175.482 162.073 171.222 167.538 172.166 168.035C173.11 168.531 176.662 175.772 177.023 179.771C177.383 183.771 166.788 193.831 166.788 193.831L159.846 180.964Z" fill="#FFBDA7"/>
<path d="M105.521 182.218C108.758 182.84 111.786 184.267 114.326 186.367C118.736 190.093 140.992 207.481 140.992 207.481L160.988 178.48L170.775 189.745C170.775 189.745 156.12 217.64 149.984 228.073C148.072 231.339 143.228 231.948 134.869 227.129C127.914 223.117 105.061 208.772 105.061 208.772C105.061 208.772 99.3604 192.192 105.521 182.218Z" fill="#FFBDA7"/>
<path d="M104.316 181.808C106.626 181.94 108.886 182.536 110.961 183.56C114.277 185.249 140.992 206.984 140.992 206.984L147.811 197.631C153.313 199.022 157.349 201.544 161.572 207.095C161.572 207.095 154.12 223.005 150.99 228.359C147.86 233.712 145.153 232.556 139.216 229.998C133.279 227.439 108.8 213.107 108.8 213.107C108.8 213.107 101.832 208.35 100.739 200.401C98.702 185.286 104.316 181.808 104.316 181.808Z" fill="#1DB954"/>
<path opacity="0.1" d="M104.316 181.808C106.626 181.94 108.886 182.536 110.961 183.56C114.277 185.249 140.992 206.984 140.992 206.984L147.811 197.631C153.313 199.022 157.349 201.544 161.572 207.095C161.572 207.095 154.12 223.005 150.99 228.359C147.86 233.712 145.153 232.556 139.216 229.998C133.279 227.439 108.8 213.107 108.8 213.107C108.8 213.107 101.832 208.35 100.739 200.401C98.702 185.286 104.316 181.808 104.316 181.808Z" fill="black"/>
<path opacity="0.1" d="M140.992 206.984C142.984 208.922 144.871 210.966 146.643 213.107C146.643 213.107 146.494 209.281 142.172 205.369L140.992 206.984Z" fill="black"/>
<path d="M147.811 197.632L151.288 192.589C154.175 193.043 156.92 194.152 159.312 195.831C161.52 197.221 163.34 199.148 164.603 201.432L161.572 207.096C157.878 202.807 153.137 199.547 147.811 197.632Z" fill="#1DB954"/>
<path opacity="0.25" d="M147.811 197.632L151.288 192.589C154.175 193.043 156.92 194.152 159.312 195.831C161.52 197.221 163.34 199.148 164.603 201.432L161.572 207.096C157.878 202.807 153.137 199.547 147.811 197.632Z" fill="black"/>
<path d="M162.504 202.065C162.504 202.312 162.405 202.549 162.231 202.724C162.056 202.899 161.819 202.997 161.572 202.997C161.325 202.997 161.088 202.899 160.913 202.724C160.739 202.549 160.641 202.312 160.641 202.065C160.641 201.818 160.739 201.581 160.913 201.407C161.088 201.232 161.325 201.134 161.572 201.134C161.819 201.134 162.056 201.232 162.231 201.407C162.405 201.581 162.504 201.818 162.504 202.065Z" fill="#455A64"/>
<path d="M73.328 169.786L73.179 171.674C73.179 171.674 74.1105 174.331 79.389 175.325C88.3811 177.002 91.5233 174.207 91.5233 174.207L91.7469 172.593C91.7469 172.593 92.6163 172.233 94.0694 173.35C96.2816 175.656 98.3553 178.09 100.279 180.641C100.279 180.641 98.5655 180.132 92.9516 182.529C87.3453 184.709 81.1686 184.941 75.4146 183.187C73.8124 182.653 72.3785 181.708 71.256 180.446C70.1336 179.184 69.362 177.649 69.0183 175.996C68.8941 174.356 71.7755 169.14 73.328 169.786Z" fill="#1DB954"/>
<path opacity="0.25" d="M73.328 169.786L73.179 171.674C73.179 171.674 74.1105 174.331 79.389 175.325C88.3811 177.002 91.5233 174.207 91.5233 174.207L91.7469 172.593C91.7469 172.593 92.6163 172.233 94.0694 173.35C96.2816 175.656 98.3553 178.09 100.279 180.641C100.279 180.641 98.5655 180.132 92.9516 182.529C87.3453 184.709 81.1686 184.941 75.4146 183.187C73.8124 182.653 72.3785 181.708 71.256 180.446C70.1336 179.184 69.362 177.649 69.0183 175.996C68.8941 174.356 71.7755 169.14 73.328 169.786Z" fill="black"/>
<path d="M171.868 167.463C171.868 167.463 184.673 166.358 186.549 167.463C188.424 168.569 187.853 174.108 186.549 177.511C185.245 180.914 178.712 183.125 172.651 187.224C172.638 186.615 171.868 167.463 171.868 167.463Z" fill="#FFBDA7"/>
<path d="M172.651 187.199C175.135 185.373 175.135 183.137 175.656 179.573C176.178 176.008 185.928 172.121 186.238 174.828C186.549 177.536 187.48 179.709 184.425 182.926C181.37 186.143 177.134 189.596 172.651 187.199Z" fill="#FFA8A7"/>
<path d="M173.334 164.259C170.999 167.289 170.601 170.866 169.372 172.841C168.142 174.816 166.267 177.089 168.974 177.449C171.682 177.809 174.973 174.282 176.426 171.065C177.179 169.255 178.59 167.799 180.376 166.991C179.134 166.557 179.767 161.452 178.873 160.781C178.91 160.757 174.303 162.632 173.334 164.259Z" fill="#FFA8A7"/>
<path d="M430.092 13.4311L385.951 38.8176C385.437 39.1524 385.01 39.6036 384.704 40.1344C384.397 40.6653 384.22 41.2609 384.187 41.8729V102.147C384.221 102.757 384.399 103.35 384.708 103.878C385.017 104.405 385.447 104.85 385.963 105.178L392.26 108.717C392.81 108.99 393.416 109.132 394.03 109.132C394.644 109.132 395.25 108.99 395.8 108.717L439.928 83.306C440.444 82.9734 440.873 82.5228 441.179 81.9915C441.486 81.4602 441.662 80.8634 441.692 80.2507V19.9765C441.659 19.3678 441.482 18.7756 441.175 18.2488C440.868 17.7219 440.441 17.2754 439.928 16.946L433.619 13.4063C433.07 13.1349 432.465 12.9958 431.852 13.0001C431.24 13.0044 430.637 13.152 430.092 13.4311Z" fill="#1DB954"/>
<path d="M394.098 107.674V47.3999C394.133 46.787 394.314 46.1913 394.625 45.6622C394.936 45.133 395.368 44.6856 395.887 44.357L439.928 18.958C440.909 18.3991 441.692 18.8587 441.692 19.9765V80.2508C441.662 80.8635 441.486 81.4602 441.179 81.9915C440.873 82.5228 440.444 82.9734 439.928 83.3061L395.887 108.693C394.881 109.251 394.098 108.804 394.098 107.674Z" fill="#1DB954"/>
<path opacity="0.2" d="M395.887 108.693C395.336 108.962 394.731 109.103 394.117 109.103C393.504 109.103 392.898 108.962 392.347 108.693L386.05 105.153C385.534 104.826 385.104 104.38 384.795 103.853C384.486 103.326 384.308 102.732 384.274 102.122V41.8605C384.305 41.2265 384.497 40.6108 384.833 40.072L394.645 45.6734C394.324 46.194 394.145 46.7889 394.123 47.3998V107.674C394.098 108.705 394.819 109.251 395.887 108.693Z" fill="black"/>
<path opacity="0.4" d="M441.667 19.6535C441.53 18.7717 440.81 18.4115 439.928 18.958L395.887 44.3569C395.365 44.6803 394.937 45.1341 394.645 45.6734L384.821 40.072C385.125 39.5612 385.552 39.1344 386.063 38.83L430.092 13.4187C430.639 13.1435 431.243 13.0001 431.855 13.0001C432.468 13.0001 433.072 13.1435 433.619 13.4187L439.928 16.9584C440.394 17.2575 440.79 17.6528 441.09 18.1176C441.389 18.5825 441.586 19.1062 441.667 19.6535Z" fill="white"/>
<path d="M379.43 86.5724C378.325 85.9142 370.041 81.2443 369.768 81.0952C369.565 80.9682 369.393 80.7984 369.263 80.5978C369.133 80.3973 369.049 80.1708 369.016 79.9341C368.983 79.6975 369.002 79.4565 369.072 79.228C369.141 78.9995 369.26 78.789 369.42 78.6112L384.398 59.8943L394.098 65.3964L379.12 84.1009C378.966 84.2786 378.852 84.4866 378.784 84.7114C378.716 84.9362 378.696 85.1727 378.725 85.4057C378.755 85.6387 378.832 85.863 378.954 86.064C379.075 86.265 379.238 86.4382 379.43 86.5724Z" fill="#1DB954"/>
<path opacity="0.4" d="M379.43 86.5724C378.325 85.9142 370.041 81.2443 369.768 81.0952C369.565 80.9682 369.393 80.7984 369.263 80.5978C369.133 80.3973 369.049 80.1708 369.016 79.9341C368.983 79.6975 369.002 79.4565 369.072 79.228C369.141 78.9995 369.26 78.789 369.42 78.6112L384.398 59.8943L394.098 65.3964L379.12 84.1009C378.966 84.2786 378.852 84.4866 378.784 84.7114C378.716 84.9362 378.696 85.1727 378.725 85.4057C378.755 85.6387 378.832 85.863 378.954 86.064C379.075 86.265 379.238 86.4382 379.43 86.5724Z" fill="white"/>
<path d="M394.098 65.4088L379.12 84.0388C378.904 84.2525 378.754 84.5241 378.689 84.8209C378.624 85.1176 378.645 85.4269 378.752 85.7116C378.858 85.9963 379.044 86.2442 379.288 86.4256C379.532 86.6069 379.823 86.714 380.126 86.734L394.098 88.2492V65.4088Z" fill="#1DB954"/>
<path d="M436.223 61.635L434.372 67.845C434.302 68.0187 434.191 68.1727 434.048 68.2939C433.906 68.4151 433.735 68.4997 433.553 68.5405L429.901 69.4223C429.515 69.524 429.183 69.7681 428.97 70.1054C428.39 71.2853 427.735 72.4262 427.007 73.5209C426.816 73.805 426.74 74.1516 426.796 74.4897L427.976 78.5013C428 78.6711 427.983 78.8441 427.927 79.0061C427.871 79.168 427.777 79.3143 427.653 79.4328L423.381 83.9537C423.312 84.0486 423.214 84.1182 423.102 84.1519C422.989 84.1855 422.869 84.1814 422.76 84.14C422.725 84.1177 422.695 84.088 422.673 84.0531L420.673 81.0102C420.536 80.7866 420.176 80.8114 419.853 81.0102C419.53 81.2089 419.058 81.5194 418.673 81.7429C418.288 81.9665 417.854 82.2025 417.431 82.4012C417.063 82.5723 416.762 82.8605 416.574 83.2209L414.476 88.872C414.391 89.032 414.269 89.1688 414.12 89.2706C413.97 89.3724 413.798 89.436 413.619 89.4558L409.731 89.8408C409.615 89.8871 409.487 89.8871 409.371 89.8408C409.306 89.8027 409.255 89.7446 409.226 89.6752C409.197 89.6058 409.191 89.5288 409.209 89.4558L410.451 83.8916C410.477 83.7459 410.45 83.5957 410.375 83.4682C410.3 83.3406 410.182 83.2442 410.042 83.1961C409.429 82.9579 408.858 82.6224 408.352 82.2025C408.212 82.1275 408.05 82.1014 407.892 82.1284C407.735 82.1553 407.591 82.2338 407.483 82.3515L403.509 85.9782C403.394 86.0992 403.24 86.1742 403.074 86.1893H402.925C402.883 86.1611 402.849 86.1226 402.826 86.0775L401.049 82.1652C401.01 82.0044 401.011 81.8364 401.052 81.6761C401.093 81.5158 401.174 81.3681 401.285 81.2461L405.011 76.7253C405.243 76.4507 405.371 76.1033 405.372 75.7441C405.279 74.678 405.279 73.6058 405.372 72.5397C405.373 72.4664 405.36 72.3935 405.332 72.3256C405.305 72.2576 405.264 72.1961 405.211 72.1449C405.159 72.0936 405.096 72.0537 405.028 72.0276C404.959 72.0015 404.886 71.9898 404.813 71.9932L401.472 71.8069C401.136 71.8069 400.925 71.5337 401.025 71.248L402.863 65.038C402.934 64.8667 403.046 64.7151 403.189 64.5962C403.332 64.4773 403.501 64.3945 403.683 64.3549L407.334 63.4731C407.721 63.3672 408.054 63.1187 408.266 62.7776C408.845 61.6018 409.5 60.465 410.228 59.3745C410.417 59.0894 410.492 58.7437 410.439 58.4058L409.197 54.3817C409.184 54.2097 409.208 54.0369 409.265 53.8744C409.323 53.7119 409.414 53.5632 409.532 53.4378L413.805 48.9293C414.053 48.6685 414.376 48.6188 414.525 48.8424L416.512 51.8728C416.649 52.0964 417.009 52.0716 417.345 51.8728C418.106 51.3436 418.907 50.8744 419.742 50.4694C420.113 50.3024 420.415 50.013 420.599 49.6497L422.698 43.9986C422.782 43.8386 422.904 43.7017 423.053 43.6C423.203 43.4982 423.375 43.4346 423.555 43.4148L427.442 43.0298C427.559 42.9901 427.685 42.9901 427.802 43.0298C427.873 43.0624 427.929 43.1192 427.961 43.1899C427.993 43.2606 427.998 43.3405 427.976 43.4148L426.734 48.979C426.71 49.123 426.736 49.2708 426.809 49.3976C426.881 49.5243 426.995 49.6221 427.131 49.6745C427.75 49.9097 428.324 50.2454 428.833 50.6681C428.973 50.7453 429.136 50.7726 429.294 50.7455C429.452 50.7185 429.596 50.6386 429.702 50.5191L433.677 46.8924C433.888 46.7061 434.099 46.644 434.248 46.7185C434.297 46.7426 434.336 46.7819 434.36 46.8303L436.124 50.7426C436.162 50.9045 436.162 51.0733 436.124 51.2352C436.085 51.3971 436.008 51.5475 435.9 51.6741L432.174 56.1702C431.943 56.4501 431.816 56.801 431.814 57.1638C431.814 57.6978 431.888 58.2567 431.888 58.8156C431.888 59.3745 431.888 59.8465 431.801 60.3681C431.801 60.442 431.816 60.5152 431.845 60.5832C431.874 60.6511 431.917 60.7125 431.97 60.7636C432.024 60.8147 432.087 60.8544 432.156 60.8804C432.225 60.9063 432.299 60.918 432.373 60.9146L435.701 61.1009C435.779 61.0867 435.859 61.0867 435.937 61.1009C435.992 61.1165 436.042 61.1428 436.086 61.1783C436.13 61.2138 436.166 61.2578 436.193 61.3076C436.22 61.3574 436.236 61.412 436.241 61.4682C436.246 61.5245 436.24 61.5812 436.223 61.635ZM421.592 72.9868C425.579 68.7889 427.467 62.4174 425.815 58.7784C425.572 58.1305 425.161 57.559 424.624 57.1224C424.087 56.6859 423.444 56.4001 422.76 56.2944H422.611H422.474H422.3C421.347 56.2758 420.403 56.4799 419.543 56.8905C419.205 57.0337 418.877 57.1997 418.562 57.3873C417.473 58.0398 416.482 58.8426 415.618 59.772C412.747 62.7606 411.038 66.6762 410.799 70.8133C410.794 71.1911 410.815 71.5687 410.861 71.9436C410.934 72.6458 411.114 73.3327 411.395 73.9804C411.684 74.716 412.188 75.3471 412.842 75.7905C413.496 76.2338 414.269 76.4688 415.059 76.4644H415.419H415.829L416.165 76.4024H416.326H416.537C418.51 75.7618 420.262 74.578 421.592 72.9868Z" fill="white"/>
<path d="M529.657 155.549V138L514.84 136.758C514.625 136.732 514.408 136.776 514.219 136.882C513.648 137.192 501.712 144.061 501.526 144.173C501.388 144.255 501.27 144.368 501.181 144.502C501.091 144.636 501.033 144.789 501.011 144.948C500.988 145.108 501.001 145.27 501.05 145.424C501.098 145.578 501.18 145.719 501.29 145.837L516.989 162.877L529.657 155.549Z" fill="#1DB954"/>
<path d="M516.989 162.827L501.29 145.837C501.141 145.677 501.044 145.476 501.012 145.26C500.98 145.044 501.013 144.824 501.109 144.628C501.204 144.431 501.357 144.269 501.547 144.161C501.736 144.053 501.954 144.005 502.172 144.024L516.989 145.266V162.827Z" fill="#1DB954"/>
<path d="M529.645 138L516.989 145.278L502.172 144.036C501.999 144.021 501.825 144.047 501.663 144.11C502.843 143.415 513.685 137.18 514.219 136.894C514.408 136.788 514.625 136.745 514.84 136.77L529.645 138Z" fill="#1DB954"/>
<path opacity="0.5" d="M529.645 138L516.989 145.278L502.172 144.036C501.999 144.021 501.825 144.047 501.663 144.11C502.843 143.415 513.685 137.18 514.219 136.894C514.408 136.788 514.625 136.745 514.84 136.77L529.645 138Z" fill="white"/>
<path d="M528.415 114.414L572.494 139.801C573.005 140.138 573.431 140.589 573.737 141.12C574.043 141.65 574.222 142.245 574.258 142.856V203.13C574.226 203.741 574.048 204.335 573.739 204.862C573.43 205.39 572.999 205.835 572.482 206.161L566.172 209.7C565.624 209.973 565.021 210.115 564.409 210.115C563.797 210.115 563.193 209.973 562.645 209.7L518.566 184.339C518.055 184.005 517.628 183.556 517.322 183.027C517.016 182.499 516.838 181.906 516.803 181.296V120.997C516.837 120.387 517.016 119.794 517.325 119.267C517.634 118.74 518.064 118.294 518.579 117.966L524.888 114.439C525.433 114.16 526.036 114.012 526.649 114.008C527.261 114.004 527.866 114.143 528.415 114.414Z" fill="#1DB954"/>
<path d="M564.409 208.67V148.383C564.375 147.774 564.199 147.182 563.895 146.653C563.591 146.125 563.167 145.675 562.657 145.34L518.566 119.941C517.598 119.382 516.803 119.842 516.803 120.96V181.246C516.83 181.865 517.004 182.468 517.311 183.005C517.618 183.543 518.048 184 518.566 184.339L562.657 209.688C563.614 210.247 564.409 209.787 564.409 208.67Z" fill="#1DB954"/>
<path opacity="0.2" d="M562.657 209.688C563.207 209.955 563.81 210.094 564.421 210.094C565.032 210.094 565.635 209.955 566.185 209.688L572.494 206.148C573.008 205.821 573.436 205.377 573.745 204.853C574.054 204.328 574.234 203.738 574.27 203.13V142.856C574.243 142.216 574.046 141.594 573.699 141.055L563.899 146.656C564.22 147.177 564.4 147.772 564.421 148.383V208.657C564.409 209.688 563.676 210.284 562.657 209.688Z" fill="black"/>
<path opacity="0.4" d="M516.828 120.649C516.964 119.755 517.697 119.407 518.566 119.941L562.657 145.34C563.173 145.67 563.6 146.122 563.899 146.657L573.711 141.055C573.408 140.544 572.981 140.117 572.469 139.813L528.415 114.414C527.867 114.142 527.264 114 526.652 114C526.04 114 525.436 114.142 524.888 114.414L518.579 117.954C518.113 118.253 517.716 118.649 517.414 119.113C517.112 119.578 516.912 120.101 516.828 120.649Z" fill="white"/>
<path d="M536.351 155.81C536.351 152.332 538.19 150.569 540.45 151.873C542.71 153.177 544.536 157.052 544.536 160.567C544.536 164.082 542.71 165.808 540.45 164.504C538.19 163.2 536.351 159.288 536.351 155.81Z" fill="#FAFAFA"/>
<path d="M545.381 186.699L535.445 180.96C534.678 180.343 534.075 179.546 533.687 178.641C533.3 177.736 533.14 176.75 533.222 175.769L533.694 170.403C534.029 166.528 536.29 164.777 538.96 166.317L541.866 167.994C544.536 169.547 546.834 173.894 547.132 178.166L547.604 184.078C547.865 186.239 546.772 187.481 545.381 186.699Z" fill="#FAFAFA"/>
<path d="M546.996 155.288C546.996 151.463 549.008 149.526 551.492 150.966C553.976 152.407 555.988 156.667 555.988 160.48C555.988 164.293 553.976 166.243 551.492 164.815C549.008 163.386 546.996 159.114 546.996 155.288Z" fill="#FAFAFA"/>
<path d="M556.671 189.058L550.101 185.258L549.629 179.371C549.281 175.047 547.675 170.919 545.008 167.497C545.247 167.129 545.56 166.814 545.925 166.572C546.291 166.329 546.703 166.165 547.135 166.088C547.567 166.011 548.01 166.024 548.437 166.125C548.864 166.226 549.265 166.415 549.616 166.677L552.833 168.528C555.764 170.23 558.236 174.999 558.608 179.706L559.13 186.189C559.316 188.611 558.161 189.915 556.671 189.058Z" fill="#FAFAFA"/>
<path d="M534.538 149.488C534.538 145.849 532.626 141.8 530.266 140.446C527.906 139.093 525.993 140.918 525.993 144.558C525.993 148.197 527.906 152.233 530.266 153.599C532.626 154.965 534.538 153.127 534.538 149.488Z" fill="#FAFAFA"/>
<path d="M536.426 163.287C534.104 163.386 532.365 165.659 532.03 169.497L531.582 174.564L525.372 170.962C524.559 170.323 523.918 169.491 523.508 168.541C523.098 167.59 522.932 166.553 523.025 165.523L523.522 159.946C523.87 155.885 526.229 154.071 529.012 155.673L532.054 157.437C534.107 158.862 535.642 160.915 536.426 163.287Z" fill="#FAFAFA"/>
<path d="M170.613 67.5492V49.9998L185.43 48.7578C185.645 48.7321 185.862 48.7756 186.051 48.882C186.622 49.1925 198.558 56.0607 198.744 56.1725C198.882 56.2552 199 56.3678 199.09 56.502C199.179 56.6363 199.237 56.7887 199.259 56.9483C199.282 57.1079 199.269 57.2705 199.22 57.4242C199.172 57.5779 199.09 57.7189 198.98 57.8368L183.281 74.8771L170.613 67.5492Z" fill="#1DB954"/>
<path d="M183.281 74.8274L198.98 57.8368C199.129 57.6772 199.226 57.4762 199.258 57.2603C199.29 57.0445 199.257 56.8239 199.161 56.6276C199.066 56.4314 198.913 56.2686 198.723 56.1608C198.534 56.0529 198.316 56.0051 198.098 56.0235L183.281 57.2655V74.8274Z" fill="#1DB954"/>
<path d="M170.625 49.9998L183.281 57.2779L198.098 56.0359C198.271 56.0213 198.446 56.0468 198.607 56.1105C197.427 55.4149 186.585 49.1801 186.051 48.8944C185.862 48.7881 185.645 48.7446 185.43 48.7702L170.625 49.9998Z" fill="#1DB954"/>
<path opacity="0.5" d="M170.625 49.9998L183.281 57.2779L198.098 56.0359C198.271 56.0213 198.446 56.0468 198.607 56.1105C197.427 55.4149 186.585 49.1801 186.051 48.8944C185.862 48.7881 185.645 48.7446 185.43 48.7702L170.625 49.9998Z" fill="white"/>
<path d="M171.855 26.4142L127.776 51.8007C127.265 52.1377 126.839 52.5894 126.533 53.1198C126.227 53.6502 126.049 54.2446 126.013 54.856V115.13C126.044 115.741 126.222 116.335 126.531 116.862C126.84 117.39 127.271 117.835 127.789 118.161L134.098 121.7C134.646 121.973 135.25 122.115 135.862 122.115C136.474 122.115 137.077 121.973 137.625 121.7L181.704 96.3388C182.216 96.0052 182.642 95.556 182.948 95.0275C183.254 94.4989 183.432 93.9058 183.467 93.2959V32.9968C183.433 32.387 183.254 31.7942 182.945 31.2672C182.636 30.7403 182.207 30.2944 181.691 29.9663L175.382 26.439C174.837 26.16 174.234 26.0123 173.621 26.008C173.009 26.0037 172.404 26.1428 171.855 26.4142V26.4142Z" fill="#1DB954"/>
<path d="M135.862 120.67V60.3829C135.895 59.7741 136.071 59.1817 136.375 58.6532C136.679 58.1248 137.103 57.675 137.613 57.34L181.704 31.9411C182.673 31.3822 183.467 31.8417 183.467 32.9595V93.2462C183.44 93.8646 183.266 94.4677 182.959 95.0055C182.652 95.5432 182.222 96.0003 181.704 96.3388L137.613 121.688C136.656 122.247 135.862 121.787 135.862 120.67Z" fill="#1DB954"/>
<path opacity="0.2" d="M137.613 121.688C137.063 121.955 136.46 122.094 135.849 122.094C135.238 122.094 134.635 121.955 134.086 121.688L127.776 118.148C127.263 117.821 126.834 117.377 126.525 116.853C126.216 116.328 126.036 115.738 126 115.13V54.8559C126.027 54.2155 126.224 53.5938 126.571 53.0551L136.371 58.6565C136.05 59.177 135.87 59.7719 135.849 60.3829V120.657C135.862 121.688 136.594 122.284 137.613 121.688Z" fill="black"/>
<path opacity="0.4" d="M183.443 32.649C183.306 31.7548 182.573 31.407 181.704 31.9411L137.613 57.34C137.097 57.6701 136.67 58.1223 136.371 58.6565L126.559 53.0551C126.863 52.5437 127.29 52.1166 127.801 51.8131L171.855 26.4142C172.403 26.1418 173.006 26 173.618 26C174.23 26 174.834 26.1418 175.382 26.4142L181.691 29.9539C182.157 30.2535 182.555 30.6487 182.857 31.1133C183.158 31.5779 183.358 32.1014 183.443 32.649V32.649Z" fill="white"/>
<path fill-rule="evenodd" clip-rule="evenodd" d="M170.713 53.2495C170.747 55.3305 169.233 57.889 167.311 58.999C165.388 60.109 163.819 59.3305 163.785 57.2495C163.75 55.1685 165.264 52.61 167.186 51.5C169.109 50.39 170.678 51.1685 170.713 53.2495ZM170.22 76.2463L170.406 87.4948L165.21 90.4948L165.024 79.2463L159.828 82.2463L163.99 65.4021C164.432 63.5948 165.749 61.7937 167.238 60.9337L167.446 60.8137C168.935 59.9537 170.269 60.2248 170.779 61.4821L175.416 73.2463L170.22 76.2463ZM151.307 88.1123L151.478 98.4234L156.426 95.5662L156.255 85.2552L158.111 84.1837L157.986 76.6223C157.961 75.11 156.827 74.5155 155.466 75.3012L153.61 76.3727C155.052 75.5402 156.187 73.6213 156.161 72.0606C156.135 70.4998 154.959 69.9159 153.517 70.7484C152.075 71.5809 150.939 73.4998 150.965 75.0606C150.991 76.6213 152.168 77.2052 153.61 76.3727L151.754 77.4441C150.393 78.2298 149.3 80.11 149.325 81.6223L149.451 89.1837L151.307 88.1123Z" fill="white"/>
</svg>
