<svg width="812" height="737" viewBox="0 0 812 737" fill="none" xmlns="http://www.w3.org/2000/svg">
<path d="M2.87118 0C16.7519 19.1721 22.8389 45.2552 22.0452 69.4844C20.8395 106.332 7.6354 141.647 2.13805 178.082C-3.36333 214.514 0.637502 255.95 27.3669 281.296C69.1827 320.965 146.228 303.909 183.926 347.49C217.653 386.452 198.187 447.087 211.684 496.783C224.183 542.717 266.174 576.971 312.399 588.325C358.597 599.706 407.968 590.735 451.695 571.975C479.719 559.976 506.155 543.979 535.443 535.511C564.732 527.043 598.725 527.216 623.015 545.627C651.978 567.592 658.744 607.526 675.327 639.871C701.644 691.216 755.311 724.678 811.741 737V0H2.87118Z" fill="url(#paint0_linear)"/>
<g opacity="0.699997">
<g opacity="0.699997">
<g opacity="0.699997">
<g opacity="0.699997">
<g opacity="0.699997">
<g opacity="0.699997">
<path opacity="0.699997" d="M653.717 481.327C652.857 483.696 651.075 485.8 648.708 486.667C646.121 487.612 643.181 486.984 640.733 485.713C636.698 483.621 633.588 479.727 632.665 475.276C631.685 470.55 632.974 463.647 637.988 461.648C641.458 460.263 646.214 461.557 649.007 463.863C651.972 466.307 653.61 470.072 654.208 473.867C654.6 476.355 654.58 478.96 653.717 481.327ZM600.107 487.693C586.681 495.729 555.282 495.171 555.27 473.634C555.262 455.462 582.635 443.439 597.861 443.777C626.396 444.411 617.758 477.13 600.107 487.693ZM793.245 662.22C743.109 659.28 690.854 629.022 678.972 580.208C668.418 536.775 689.973 485.227 663.448 449.264C643.011 421.535 601.224 417.534 569.437 430.797C537.618 444.029 513.476 470.407 490.336 495.9C467.193 521.396 442.843 547.655 410.879 560.505C377.828 573.796 338.571 570.591 308.107 552.096C277.613 533.57 256.676 500.222 253.235 464.73C249.913 430.443 261.97 396.716 265.643 362.486C269.319 328.227 261.115 288.001 230.797 271.652C204.861 257.654 173.192 266.328 144.433 272.797C115.644 279.296 80.9166 281.443 61.3326 259.419C38.8948 234.189 50.7761 194.489 66.3007 164.496C93.6784 111.684 130.112 57.811 132.053 0H2.87328C16.752 19.1721 22.839 45.2552 22.0453 69.4863C20.8396 106.332 7.63749 141.649 2.13812 178.082C-3.36125 214.516 0.637568 255.948 27.367 281.296C69.1827 320.965 146.226 303.909 183.924 347.488C217.654 386.452 198.187 447.087 211.684 496.783C224.183 542.715 266.174 576.971 312.401 588.325C358.597 599.704 407.968 590.735 451.695 571.975C479.719 559.976 506.155 543.979 535.443 535.511C564.732 527.043 598.726 527.218 623.013 545.627C651.978 567.592 658.744 607.526 675.329 639.871C701.646 691.216 755.311 724.678 811.743 737V662.337C805.597 662.604 799.421 662.574 793.245 662.22Z" fill="url(#paint1_linear)"/>
</g>
</g>
</g>
</g>
</g>
</g>
<path d="M668.764 477.041L756.253 339.723C758.877 335.605 764.336 334.405 768.442 337.02L777.457 342.764C781.565 345.381 782.771 350.826 780.147 354.944L692.66 492.263L677.43 502.563L663.14 512.235L665.866 495.195L668.764 477.041Z" fill="#FFD524"/>
<path d="M680.713 484.652L772.944 339.889L777.457 342.765C781.565 345.381 782.771 350.827 780.148 354.945L692.661 492.264L680.713 484.652Z" fill="#FFC32E"/>
<path d="M668.764 477.041L692.66 492.263L677.43 502.563L663.14 512.235L665.866 495.195L668.764 477.041Z" fill="#FFE2B2"/>
<path d="M665.867 495.196L677.431 502.561L663.139 512.235L665.867 495.196Z" fill="#3D4051"/>
<path d="M747.284 353.798L756.253 339.722C758.877 335.604 764.336 334.404 768.444 337.019L777.457 342.765C781.565 345.381 782.771 350.827 780.147 354.945L771.18 369.022L747.284 353.798Z" fill="#FF582A"/>
<path d="M747.284 353.798L771.18 369.022L765.868 377.359L741.972 362.135L747.284 353.798Z" fill="#3D4051"/>
<path d="M759.232 361.41L772.943 339.889L777.457 342.765C781.565 345.381 782.771 350.828 780.147 354.945L771.18 369.022L759.232 361.41Z" fill="#AE1E0B"/>
<path d="M111.201 224.552L265.666 173.062C270.299 171.519 275.294 174.028 276.835 178.646L280.216 188.789C281.753 193.408 279.258 198.398 274.625 199.941L120.162 251.431L101.845 249.829L84.6539 248.333L97.5106 236.821L111.201 224.552Z" fill="#009FDA"/>
<path d="M115.681 237.991L278.52 183.71L280.214 188.787C281.753 193.406 279.259 198.399 274.626 199.942L120.161 251.429L115.681 237.991Z" fill="#0071B8"/>
<path d="M111.201 224.552L120.162 251.431L101.845 249.829L84.6539 248.333L97.5106 236.821L111.201 224.552Z" fill="#FFE2B2"/>
<path d="M97.51 236.821L101.844 249.83L84.6553 248.333L97.51 236.821Z" fill="#3D4051"/>
<path d="M249.834 178.341L265.667 173.064C270.3 171.519 275.293 174.027 276.834 178.646L280.215 188.788C281.753 193.407 279.257 198.397 274.624 199.94L258.793 205.22L249.834 178.341Z" fill="#FFD524"/>
<path d="M249.834 178.341L258.793 205.22L249.414 208.346L240.453 181.467L249.834 178.341Z" fill="#3D4051"/>
<path d="M254.313 191.78L278.52 183.709L280.214 188.789C281.753 193.408 279.259 198.398 274.626 199.941L258.792 205.22L254.313 191.78Z" fill="#FFC32E"/>
<path d="M419.918 234.86L311.716 271.845L330.821 326.889C370.763 332.481 410.957 318.532 438.848 289.397L419.918 234.86Z" fill="#3D4051"/>
<path d="M482.303 217.118L384.849 305.353L253.688 296.464L267.337 284.127L274.68 277.468L351.14 208.23L454.054 215.212L463.944 215.888L482.303 217.118Z" fill="#3D4051"/>
<path d="M463.945 215.889L380.131 291.761L267.335 284.127L274.68 277.468L351.14 208.23L454.055 215.212L463.945 215.889Z" fill="#484D5B"/>
<path d="M249.54 372.08L244.243 371.601L251.182 294.616L366.299 247.37L368.317 252.292L256.19 298.312L249.54 372.08Z" fill="#FFD524"/>
<path d="M249.702 343.378L248.613 343.032C245.333 344.279 233.912 350.632 231.663 379.25L255.365 382.924C261.496 355.011 252.521 345.577 249.702 343.378Z" fill="#FFD524"/>
<path d="M742.312 161.266C739.602 156.092 733.187 154.088 728.015 156.799C722.839 159.509 720.836 165.923 723.546 171.097C726.256 176.27 732.67 178.275 737.843 175.565C743.019 172.854 745.022 166.44 742.312 161.266ZM721.692 172.067C718.448 165.871 720.848 158.192 727.044 154.947C733.24 151.701 740.92 154.102 744.164 160.297C747.409 166.493 745.01 174.173 738.814 177.417C732.618 180.662 724.937 178.263 721.692 172.067Z" fill="#CADFEF"/>
<path d="M681.752 219.807L659.221 176.791L662.461 175.093L684.991 218.108L681.752 219.807Z" fill="white"/>
<path d="M616.677 257.861L606.555 268.064L618.48 260.042L628.944 251.39L627.142 249.209L616.677 257.861Z" fill="#CADFEF"/>
<path d="M728.327 176.297L626.238 260.696L620.965 254.317L723.052 169.918L728.327 176.297Z" fill="#3D4051"/>
<path d="M641.354 253.003C638.018 255.762 633.074 255.293 630.315 251.955C627.556 248.618 628.025 243.676 631.363 240.918C634.699 238.157 639.641 238.625 642.402 241.964C645.161 245.302 644.69 250.244 641.354 253.003Z" fill="white"/>
<path d="M639.214 250.412C637.307 251.99 634.482 251.721 632.905 249.814C631.329 247.908 631.598 245.083 633.504 243.507C635.411 241.93 638.234 242.199 639.812 244.105C641.387 246.012 641.118 248.835 639.214 250.412Z" fill="#CADFEF"/>
<path d="M591.566 209.921L577.417 212.431L590.801 207.196L603.871 203.521L604.637 206.245L591.566 209.921Z" fill="#CADFEF"/>
<path d="M722.191 164.583L594.679 200.445L596.921 208.414L724.431 172.552L722.191 164.583Z" fill="#3D4051"/>
<path d="M748.85 156.021L728.783 166.531L730.284 169.39L750.347 158.88L748.85 156.021Z" fill="#3D4051"/>
<path d="M661.641 202.932C661.029 201.763 661.479 200.321 662.648 199.709L678.993 191.148C680.16 190.536 681.604 190.986 682.216 192.155C682.828 193.323 682.378 194.767 681.209 195.379L664.866 203.94C663.697 204.552 662.253 204.101 661.641 202.932Z" fill="#CADFEF"/>
<path d="M729.228 178.021C724.939 180.269 719.637 178.611 717.391 174.319C715.142 170.03 716.8 164.728 721.091 162.483C725.381 160.235 730.682 161.891 732.93 166.182C735.176 170.472 733.52 175.774 729.228 178.021Z" fill="white"/>
<path d="M727.441 174.606C725.036 175.866 722.065 174.937 720.805 172.532C719.545 170.127 720.474 167.156 722.879 165.898C725.285 164.635 728.253 165.564 729.514 167.97C730.774 170.375 729.845 173.346 727.441 174.606Z" fill="#CADFEF"/>
<path d="M746.596 160.73L745.194 158.052C744.374 156.489 744.976 154.561 746.539 153.743L773.911 139.403C775.474 138.588 777.405 139.189 778.223 140.751L779.624 143.431C780.444 144.992 779.84 146.92 778.279 147.738L750.906 162.077C749.342 162.895 747.412 162.292 746.596 160.73Z" fill="white"/>
<path d="M470.341 562.359C470.341 562.359 453.932 522.765 421.584 519.102C389.24 515.442 326.016 552.667 217.214 552.667L195.894 585.013H470.341V562.359Z" fill="#CADFEF"/>
<path d="M470.341 562.359C470.341 562.359 473.045 527.671 455.769 518.849C434.347 507.911 355.054 531.348 260.097 465.429L230.691 523.26C230.691 523.26 265.551 545.601 325.77 551.93C402.717 560.019 434.315 514.551 470.341 562.359Z" fill="white"/>
<path d="M470.349 562.359C470.349 562.359 486.758 522.765 519.106 519.102C551.452 515.442 614.675 552.667 723.477 552.667L744.796 585.013H470.349V562.359Z" fill="#CADFEF"/>
<path d="M470.341 557.724C470.341 557.724 478.191 518.128 510.537 513.893C542.885 509.66 616.398 539.433 636.984 541.638C657.568 543.844 718.584 545.682 718.584 545.682L729.863 562.359C729.863 562.359 659.22 561.671 637.719 559.282C611.252 556.341 553.912 523.26 514.95 528.774C475.986 534.289 471.575 562.396 471.575 562.396L470.341 557.724Z" fill="white"/>
<path d="M763.43 601.186H182.662V585.013H763.43V601.186Z" fill="#8D5115"/>
<path d="M490.933 614.419H449.766C437.992 614.419 428.447 604.873 428.447 593.098H512.254C512.254 604.873 502.708 614.419 490.933 614.419Z" fill="#8D5115"/>
<path d="M487.322 602.503H453.377C443.668 602.503 435.798 594.632 435.798 584.924L470.349 557.718L504.901 584.924C504.901 594.632 497.032 602.503 487.322 602.503Z" fill="#774206"/>
<path d="M504.893 584.924C504.893 588.775 503.657 592.364 501.54 595.274L470.342 570.722L439.139 595.274C437.024 592.364 435.788 588.775 435.788 584.924L470.342 557.724L504.893 584.924Z" fill="#FFD524"/>
<path d="M230.989 153.954C229.292 157.686 224.876 159.342 221.143 157.648L204.019 149.866C203.492 149.626 203.26 149.004 203.498 148.477C203.738 147.947 204.36 147.715 204.89 147.956L222.012 155.735C224.69 156.953 227.859 155.763 229.076 153.085C230.294 150.405 229.105 147.237 226.427 146.019L206.647 137.032C204.775 136.181 202.559 137.011 201.709 138.883C200.859 140.754 201.691 142.971 203.561 143.819L219.907 151.247C221.01 151.75 222.317 151.26 222.818 150.157C223.318 149.054 222.83 147.748 221.725 147.247L209.63 141.751C209.103 141.509 208.868 140.889 209.109 140.36C209.349 139.831 209.971 139.598 210.498 139.839L222.595 145.334C224.75 146.316 225.71 148.868 224.728 151.025C223.749 153.182 221.196 154.14 219.039 153.16L202.692 145.732C199.766 144.403 198.467 140.941 199.798 138.015C201.127 135.089 204.589 133.79 207.513 135.119L227.295 144.108C231.029 145.805 232.685 150.22 230.989 153.954Z" fill="white"/>
<path d="M202.494 311.784C201.045 313.016 197.756 312.271 193.833 309.73C194.716 308.444 195.568 306.996 196.38 305.439C198.466 304.992 200.438 304.429 202.219 303.752C203.758 307.628 203.845 310.635 202.494 311.784ZM183.374 314.919C181.607 314.214 180.728 310.95 181.142 306.289C182.871 306.487 184.735 306.58 186.716 306.543C188.126 307.935 189.542 309.151 190.933 310.197C188.025 313.862 185.141 315.623 183.374 314.919ZM171.664 299.481C171.477 297.718 173.609 295.595 177.394 293.846C178.22 295.563 179.262 297.328 180.468 299.087C179.983 300.775 179.605 302.411 179.359 303.954C174.766 303.094 171.868 301.371 171.664 299.481ZM178.172 283.179C179.149 282.347 180.967 282.411 183.253 283.322C184.347 283.76 185.559 284.415 186.828 285.235C185.949 286.519 185.099 287.963 184.291 289.516C182.154 289.964 180.189 290.532 178.434 291.194C178.285 290.819 178.139 290.445 178.014 290.08C176.879 286.745 176.936 284.227 178.172 283.179ZM197.291 280.044C199.056 280.749 199.935 284.007 199.525 288.66C197.8 288.462 195.928 288.381 193.951 288.417C192.543 287.03 191.129 285.798 189.742 284.754C192.648 281.096 195.526 279.339 197.291 280.044ZM199.418 298.358C200.187 299.582 200.854 300.769 201.401 301.904C200.195 302.359 198.891 302.757 197.523 303.102C197.869 302.341 198.208 301.561 198.531 300.755C198.854 299.945 199.143 299.148 199.418 298.358ZM195.906 290.461C197.093 290.496 198.216 290.578 199.276 290.704C199.125 291.675 198.917 292.695 198.662 293.751C198.151 293.089 197.62 292.426 197.059 291.764C196.677 291.316 196.291 290.885 195.906 290.461ZM186.86 289.042C187.401 288.098 187.954 287.218 188.514 286.41C189.368 287.046 190.241 287.761 191.125 288.555C190.552 288.597 189.978 288.642 189.392 288.704C188.528 288.797 187.686 288.914 186.86 289.042ZM181.247 296.607C180.494 295.413 179.822 294.228 179.26 293.067C180.44 292.622 181.74 292.218 183.142 291.863C182.796 292.624 182.457 293.402 182.134 294.21C181.811 295.017 181.522 295.815 181.247 296.607ZM184.772 304.506C183.58 304.471 182.451 304.39 181.389 304.263C181.54 303.288 181.748 302.266 182.005 301.206C182.52 301.876 183.049 302.543 183.606 303.199C183.992 303.651 184.382 304.077 184.772 304.506ZM193.807 305.915C193.264 306.862 192.709 307.747 192.147 308.559C191.291 307.919 190.416 307.2 189.528 306.404C190.105 306.362 190.681 306.321 191.273 306.259C192.131 306.166 192.973 306.047 193.807 305.915ZM191.057 304.253C189.841 304.382 188.669 304.457 187.532 304.497C186.735 303.686 185.937 302.823 185.145 301.894C184.261 300.852 183.437 299.794 182.675 298.734C183.051 297.51 183.493 296.247 184.008 294.957C184.523 293.666 185.072 292.445 185.644 291.297C186.9 291.057 188.225 290.859 189.608 290.71C190.824 290.58 191.992 290.512 193.129 290.473C193.928 291.285 194.728 292.138 195.52 293.071C196.423 294.129 197.245 295.185 197.992 296.225C197.614 297.451 197.172 298.713 196.657 300.006C196.142 301.296 195.593 302.516 195.025 303.661C193.741 303.908 192.414 304.108 191.057 304.253ZM205.216 292.089C207.502 293 208.863 294.206 209.001 295.482C209.174 297.096 207.482 298.958 204.362 300.596C204.02 300.773 203.657 300.945 203.291 301.113C202.475 299.424 201.439 297.661 200.199 295.866C200.682 294.181 201.06 292.552 201.306 291.013C202.792 291.291 204.121 291.651 205.216 292.089ZM204.111 302.957C204.517 302.771 204.921 302.581 205.299 302.383C209.249 300.309 211.277 297.782 211.006 295.266C210.677 292.196 207.04 289.952 201.563 288.965C202.088 283.423 200.908 279.315 198.038 278.17C195.17 277.025 191.487 279.192 188.053 283.574C183.398 280.517 179.218 279.638 176.865 281.64C174.936 283.28 174.668 286.509 176.103 290.732C176.241 291.136 176.404 291.55 176.57 291.966C172.022 294.052 169.352 296.827 169.659 299.697C169.889 301.856 171.753 303.609 174.744 304.802C176.004 305.305 177.481 305.695 179.105 305.988C178.575 311.536 179.755 315.648 182.627 316.793C185.495 317.938 189.182 315.769 192.618 311.382C193.995 312.287 195.338 313.02 196.596 313.523C199.587 314.717 202.146 314.729 203.8 313.323C206 311.453 205.973 307.602 204.111 302.957Z" fill="white"/>
<path d="M191.792 293.826C189.773 293.02 187.482 294.003 186.677 296.021C185.871 298.041 186.854 300.331 188.874 301.139C190.893 301.944 193.182 300.959 193.987 298.941C194.795 296.922 193.812 294.631 191.792 293.826Z" fill="white"/>
<path d="M750.316 468.872C748.791 474.042 751.279 479.43 755.954 481.733L754.421 486.925C752.026 486.998 749.835 488.49 748.956 490.823L760.466 494.22C760.997 491.784 759.965 489.341 757.996 487.979L759.527 482.789C764.703 483.391 769.718 480.216 771.243 475.048L775.31 461.264L754.383 455.09L750.316 468.872Z" fill="white"/>
<path d="M761.311 495.5L747.554 491.44C746.958 491.265 746.332 491.604 746.154 492.202C745.978 492.799 746.32 493.425 746.917 493.603L760.675 497.661C761.269 497.836 761.897 497.495 762.072 496.899C762.248 496.301 761.907 495.675 761.311 495.5Z" fill="white"/>
<path d="M743.568 460.906C742.621 464.113 744.461 467.494 747.67 468.437L748.872 468.793L749.553 466.486L748.351 466.131C746.416 465.561 745.305 463.521 745.877 461.587C746.448 459.652 748.488 458.541 750.423 459.113L751.623 459.468L752.303 457.162L751.102 456.806C747.896 455.859 744.516 457.699 743.568 460.906Z" fill="white"/>
<path d="M777.132 464.486L775.931 464.13L775.248 466.439L776.452 466.794C778.387 467.364 779.497 469.403 778.926 471.338C778.354 473.275 776.316 474.382 774.382 473.812L773.178 473.457L772.497 475.765L773.701 476.119C776.908 477.066 780.287 475.226 781.232 472.019C782.179 468.812 780.34 465.433 777.132 464.486Z" fill="white"/>
<path d="M759.471 259.393C755.844 261.461 751.231 260.201 749.163 256.574C749.147 256.549 749.153 256.529 749.138 256.503L762.24 249.026C762.254 249.053 762.274 249.057 762.29 249.083C764.358 252.71 763.098 257.323 759.471 259.393ZM756.453 242.002L752.519 235.107L742.086 241.059L746.02 247.956C744.441 251.092 744.415 254.934 746.289 258.216C749.26 263.424 755.898 265.24 761.111 262.265C766.321 259.292 768.135 252.654 765.162 247.443C763.29 244.161 759.955 242.236 756.453 242.002Z" fill="white"/>
<path d="M741.223 239.289L751.44 233.458C752.466 232.872 752.826 231.562 752.238 230.534C751.652 229.506 750.344 229.148 749.316 229.734L739.099 235.565C738.069 236.15 737.711 237.461 738.299 238.489C738.887 239.517 740.195 239.876 741.223 239.289Z" fill="white"/>
<path d="M540.437 165.053L544.767 170.049L543.438 171.2C541.695 169.591 539.595 168.559 537.385 168.106L537.519 166.277C537.583 165.358 536.893 164.56 535.974 164.493C535.055 164.429 534.255 165.119 534.19 166.038L534.059 167.868C531.795 168.003 529.551 168.732 527.588 170.094L526.474 168.807L531.472 164.479C529.947 163.114 528.01 162.419 526.064 162.421L526.958 159.697C527.326 158.574 528.406 157.849 529.584 157.934L543.184 158.907C544.383 158.994 545.353 159.883 545.539 161.068L545.967 163.766C544.076 163.52 542.105 163.94 540.437 165.053ZM543.638 178.507L535.4 182.783C535.164 182.906 534.907 182.956 534.655 182.938C534.314 182.914 533.986 182.767 533.738 182.508L527.903 176.403C527.366 175.841 527.386 174.953 527.946 174.416C528.509 173.882 529.396 173.901 529.935 174.462L535.041 179.806L542.344 176.013C543.032 175.656 543.88 175.924 544.238 176.613C544.595 177.302 544.327 178.15 543.638 178.507ZM550.935 177.17C553.613 174.181 553.722 169.599 551.024 166.487C550.155 165.485 549.095 164.752 547.946 164.289L547.389 160.775C547.063 158.723 545.389 157.186 543.319 157.039L529.717 156.065C527.681 155.92 525.815 157.172 525.177 159.113L524.006 162.688C522.852 162.991 521.75 163.556 520.788 164.39C517.674 167.086 517.127 171.637 519.354 174.977L524.351 170.647L525.47 171.94C521.455 176.288 520.982 182.872 524.337 187.749L521.97 189.799C521.384 190.308 521.322 191.194 521.83 191.78C522.337 192.366 523.226 192.43 523.812 191.921L526.173 189.878C530.521 193.923 537.127 194.404 542.018 191.039L544.345 193.725C544.854 194.311 545.741 194.375 546.326 193.866C546.912 193.359 546.977 192.471 546.468 191.885L544.147 189.205C548.204 184.845 548.677 178.212 545.282 173.319L546.607 172.172L550.935 177.17Z" fill="white"/>
<path d="M552.75 160.81C551.744 160.142 550.688 161.689 551.692 162.355C554.337 164.112 555.864 167.015 555.757 170.193C555.719 171.397 557.587 171.536 557.625 170.329C557.755 166.493 555.953 162.937 552.75 160.81Z" fill="white"/>
<path d="M556.401 158.46C555.395 157.792 554.339 159.339 555.344 160.007C557.988 161.762 559.515 164.665 559.408 167.845C559.369 169.047 561.238 169.186 561.276 167.979C561.405 164.144 559.604 160.587 556.401 158.46Z" fill="white"/>
<path d="M519.22 158.41C520.31 157.893 521.136 159.573 520.048 160.092C517.178 161.454 515.255 164.107 514.906 167.27C514.774 168.466 512.904 168.338 513.038 167.137C513.458 163.324 515.746 160.058 519.22 158.41Z" fill="white"/>
<path d="M515.942 155.565C517.032 155.048 517.858 156.728 516.768 157.245C513.9 158.607 511.975 161.262 511.626 164.425C511.497 165.621 509.626 165.491 509.758 164.292C510.178 160.477 512.468 157.213 515.942 155.565Z" fill="white"/>
<path d="M347.161 163.245L347.825 166.258L340.189 167.94L340.783 170.645L347.678 169.126L348.34 172.139L341.448 173.658L342.047 176.382L349.892 174.656L350.554 177.669L338.933 180.228L335.748 165.757L347.161 163.245Z" fill="white"/>
<path d="M360.076 169.601L360.593 171.953L351.387 173.979L350.868 171.626L360.076 169.601ZM359.094 165.141L359.613 167.496L350.406 169.522L349.887 167.167L359.094 165.141Z" fill="white"/>
<path d="M380.772 163.638L382.324 170.676L378.648 171.486L377.329 165.5C377.048 164.219 376.18 163.609 375.043 163.86C373.746 164.167 373.169 165.376 373.494 166.841L374.706 172.352L371.032 173.162L369.713 167.176C369.432 165.895 368.562 165.285 367.427 165.536C366.13 165.843 365.533 167.057 365.854 168.523L367.067 174.034L363.414 174.838L360.954 163.672L364.61 162.868L365.014 164.704C365.492 163.236 366.599 162.276 368.211 161.923C370.028 161.523 371.573 162.157 372.476 163.603C372.833 161.792 374.011 160.646 375.829 160.247C378.242 159.715 380.195 161.016 380.772 163.638Z" fill="white"/>
<path d="M388.019 160.766C386.698 161.057 386.031 162.349 386.385 163.961C386.744 165.591 387.889 166.463 389.21 166.172C390.18 165.96 390.856 165.399 391.121 164.431L394.164 165.387C393.655 167.293 392.052 168.665 389.677 169.186C386.231 169.945 383.444 168.2 382.693 164.795C381.932 161.325 383.739 158.526 387.207 157.763C389.457 157.268 391.444 157.848 392.783 159.306L390.462 161.438C389.808 160.826 388.97 160.556 388.019 160.766Z" fill="white"/>
<path d="M397.079 152.918C396.98 152.468 396.58 152.284 395.976 152.418C395.302 152.565 394.538 153.155 393.912 153.975L392.745 152.557C393.638 151.543 394.692 150.814 395.9 150.549C397.58 150.18 398.99 150.786 399.28 152.098C399.476 152.999 398.998 154.084 398.281 155.223L396.952 157.301L400.5 156.519L400.884 158.258L394.567 159.65L394.239 158.22L396.574 154.455C396.932 153.882 397.156 153.274 397.079 152.918Z" fill="white"/>
<path d="M270.679 405.427C271.373 407.049 270.62 408.927 268.998 409.62C267.377 410.313 265.498 409.559 264.806 407.94C264.111 406.32 264.864 404.44 266.486 403.747C268.108 403.054 269.986 403.808 270.679 405.427ZM279.971 407.083C280.664 408.705 279.91 410.583 278.291 411.276C276.671 411.971 274.791 411.217 274.096 409.596C273.405 407.976 274.158 406.096 275.776 405.403C277.398 404.71 279.278 405.464 279.971 407.083ZM265.579 418.349C263.959 419.043 262.077 418.29 261.384 416.668C260.694 415.049 261.449 413.174 263.069 412.482C264.689 411.787 266.567 412.536 267.26 414.156C267.952 415.778 267.199 417.656 265.579 418.349ZM272.195 422.269C272.89 423.89 272.139 425.763 270.519 426.455C268.897 427.148 267.019 426.401 266.328 424.781C265.634 423.159 266.389 421.279 268.009 420.586C269.628 419.894 271.503 420.651 272.195 422.269ZM290.957 421.715C291.363 422.943 290.695 424.266 289.467 424.672C288.237 425.078 286.914 424.403 286.516 423.18C286.112 421.95 286.779 420.627 288.007 420.223C289.235 419.817 290.558 420.485 290.957 421.715ZM279.634 431.141C278.014 431.834 276.136 431.086 275.441 429.465C274.748 427.839 275.504 425.965 277.123 425.272C278.743 424.579 280.621 425.326 281.318 426.954C282.009 428.572 281.253 430.446 279.634 431.141ZM266.732 400.471C262.386 402.99 259.432 407.726 259.044 412.843C258.664 417.882 260.704 423.014 264.277 426.595C266.429 428.746 269.075 430.347 271.876 431.555C279.567 434.875 289.867 435.461 296.903 430.315C299.07 428.731 301.266 426.207 301.06 423.321C300.829 420.104 297.945 419.494 295.534 418.357C293.324 417.313 291.822 415.166 290.628 413.118C287.962 408.55 285.624 403.432 281.152 400.607C278.321 398.819 274.835 398.227 271.525 398.757C269.8 399.033 268.189 399.629 266.732 400.471Z" fill="white"/>
<path d="M247.232 432.713C247.222 432.747 247.24 432.787 247.271 432.832C247.275 432.84 247.285 432.852 247.295 432.864C247.325 432.9 247.366 432.939 247.42 432.981C247.436 432.995 247.446 433.007 247.467 433.019C247.533 433.072 247.616 433.125 247.711 433.181C247.763 433.213 247.822 433.246 247.877 433.276C247.931 433.306 247.986 433.339 248.042 433.367C248.123 433.411 248.206 433.452 248.297 433.5C248.305 433.504 248.315 433.508 248.323 433.512C252.974 435.821 271.546 441.791 283.163 445.087L283.161 445.089C283.442 445.167 283.716 445.244 283.987 445.321C284.005 445.325 284.023 445.331 284.039 445.335C284.847 445.561 285.861 445.824 286.913 446.072C287.546 446.222 288.192 446.369 288.82 446.5C289.028 446.547 289.234 446.587 289.436 446.63C290.044 446.751 290.619 446.856 291.126 446.935C291.466 446.987 291.775 447.027 292.041 447.054C292.075 447.058 292.102 447.06 292.134 447.06C292.437 447.92 293.156 448.647 294.255 448.867C294.473 448.91 294.683 448.93 294.895 448.928C295.773 448.926 296.583 448.623 297.419 448.443C298.774 448.154 299.881 448.558 300.919 449.314C300.976 449.354 301.038 449.396 301.093 449.443C301.236 449.55 301.372 449.663 301.511 449.782C301.222 448.52 300.725 447.266 299.909 446.165C299.085 445.06 297.932 444.117 296.577 443.612C295.636 443.265 294.551 443.138 293.689 443.521C293.473 443.616 293.277 443.733 293.103 443.863C292.504 443.566 291.581 443.194 290.526 442.811C288.775 442.168 286.687 441.49 285.233 441.082C271.924 437.345 247.561 431.537 247.232 432.713Z" fill="white"/>
<path d="M160.134 97.8418L156.166 102.277L157.567 108.059L152.125 105.656L147.059 108.776L147.663 102.856L143.129 99.0031L148.946 97.7489L151.212 92.2455L154.201 97.3894L160.134 97.8418Z" fill="white"/>
<path d="M306.28 348.732L302.309 353.167L303.713 358.949L298.27 356.545L293.203 359.666L293.807 353.746L289.275 349.893L295.091 348.639L297.355 343.135L300.346 348.279L306.28 348.732Z" fill="white"/>
<path d="M466.235 173.608L460.4 174.782L458.057 180.251L455.141 175.064L449.213 174.527L453.244 170.151L451.926 164.348L457.334 166.831L462.444 163.779L461.755 169.69L466.235 173.608Z" fill="white"/>
<path d="M776.884 105.509L771.049 106.68L768.709 112.151L765.792 106.965L759.865 106.428L763.896 102.051L762.575 96.2492L767.984 98.7292L773.093 95.6796L772.405 101.591L776.884 105.509Z" fill="white"/>
<path d="M716.18 306.089L710.345 307.263L708.004 312.732L705.088 307.545L699.16 307.008L703.192 302.632L701.871 296.829L707.279 299.312L712.389 296.262L711.7 302.171L716.18 306.089Z" fill="white"/>
<path d="M781.008 539.532L775.173 540.704L772.831 546.173L769.914 540.988L763.989 540.451L768.018 536.073L766.699 530.27L772.108 532.752L777.217 529.703L776.528 535.614L781.008 539.532Z" fill="white"/>
<path d="M110.918 307.509L105.084 308.681L102.741 314.152L99.8247 308.965L93.8992 308.428L97.9283 304.052L96.6095 298.249L102.018 300.73L107.128 297.68L106.439 303.591L110.918 307.509Z" fill="white"/>
<path d="M562.229 267.306L551.161 269.228L542.316 262.299C537.012 258.145 529.986 256.462 523.553 258.468C515.79 260.885 506.969 268.608 502.727 289.824C494.247 332.26 533.704 338.682 533.704 338.682C533.704 338.682 571.509 351.678 584.099 310.277C590.394 289.576 586.27 278.599 580.575 272.799C575.853 267.99 568.867 266.152 562.229 267.306Z" fill="#FF582A"/>
<path d="M545.567 340.566C538.636 340.372 533.696 338.669 533.696 338.669C533.696 338.669 494.249 332.245 502.737 289.825C506.985 268.599 515.802 260.904 523.559 258.475C529.988 256.467 537.012 258.136 542.321 262.3L545.484 264.776C538.084 267.624 529.988 275.601 525.967 295.664C520.54 322.751 534.645 335.153 545.567 340.566Z" fill="#AE1E0B"/>
<path d="M569.488 254.55C556.212 255.22 545.665 264.622 543.876 277.894C543.312 282.071 549.755 283.61 550.325 279.379C551.718 269.039 559.168 261.693 569.709 261.162C573.956 260.946 573.754 254.334 569.488 254.55Z" fill="#3D4051"/>
<path d="M544.153 246.277C550.452 256.805 545.597 271.302 545.597 271.302C545.597 271.302 530.529 268.727 524.23 258.197C517.93 247.669 522.786 233.172 522.786 233.172C522.786 233.172 537.854 235.749 544.153 246.277Z" fill="#008C41"/>
<path d="M652.645 357.034C646.221 358.686 625.015 369.826 613.651 376.65C555.149 411.773 451.792 479.514 454.89 484.677C457.988 489.835 566.368 430.462 624.872 395.34C636.236 388.517 655.963 375.35 660.515 370.145L652.645 357.034Z" fill="#8D5115"/>
<path d="M624.871 395.339C636.236 388.517 655.963 375.351 660.515 370.145L652.645 357.035C646.221 358.685 625.015 369.827 613.651 376.65C612.388 377.407 611.1 378.185 609.795 378.972L621.01 397.649C622.315 396.87 623.609 396.096 624.871 395.339Z" fill="white"/>
<path d="M465.582 481.824C459.285 484.474 455.427 485.586 454.882 484.68C451.778 479.511 555.155 411.756 613.645 376.641C625.015 369.817 646.223 358.695 652.637 357.039L655.788 362.284C649.371 363.94 628.163 375.06 616.793 381.886C568.664 410.781 490.136 461.765 465.582 481.824Z" fill="#774206"/>
<path d="M655.773 362.269C649.361 363.945 628.159 375.061 616.779 381.883C615.514 382.647 614.25 383.412 612.958 384.206L609.811 378.973C611.106 378.177 612.37 377.414 613.634 376.649C625.015 369.826 646.216 358.682 652.625 357.034L655.773 362.269Z" fill="#CADFEF"/>
<path d="M651.829 366.031C650.051 362.844 649.557 358.819 651.049 354.564C652.596 350.171 656.72 346.7 661.167 344.51C667.571 341.352 674.858 340.407 681.606 341.192C688.329 341.992 694.509 344.456 700.02 347.697C699.118 347.794 698.255 347.899 697.383 348.047C697.031 348.087 696.666 348.168 696.328 348.233C690.1 349.4 684.908 352.003 681.349 357.844C679.16 361.455 677.512 365.395 674.537 368.554C673.832 369.319 673.04 370 672.152 370.636C664.576 376.008 655.486 372.754 651.829 366.031Z" fill="#3D4051"/>
<path d="M86.1013 91.2249L128.008 169.902C129.198 172.136 128.353 174.905 126.102 176.105L114.309 182.388C112.055 183.587 109.286 182.743 108.097 180.507L66.1881 101.832C64.9985 99.5981 65.8326 96.8091 68.0865 95.6094L79.8789 89.3285C82.1328 88.1268 84.9118 88.9912 86.1013 91.2249Z" fill="#FFC32E"/>
<path d="M68.0866 95.6201C65.8469 96.8137 64.9986 99.5967 66.1922 101.836L108.093 180.5C109.284 182.742 112.067 183.59 114.307 182.396L120.204 179.244L73.9818 92.4675L68.0866 95.6201Z" fill="#FFD524"/>
<path d="M64.0968 73.9084C62.3397 74.8435 61.342 76.7641 61.5824 78.7393L62.0166 82.2877C62.3862 85.305 63.3071 88.2294 64.737 90.9134L67.6089 96.3057L74.1665 92.8138L80.7221 89.322L77.8502 83.9296C76.4224 81.2456 74.5098 78.8483 72.2095 76.857L69.5073 74.5183C68.0027 73.2157 65.8518 72.9733 64.0968 73.9084Z" fill="#FFC32E"/>
<path d="M68.205 73.7329C68.0899 74.2176 68.0818 74.7205 68.1343 75.2416L68.5827 78.7941C68.9442 81.8174 69.8772 84.7377 71.3051 87.4177L74.1709 92.8L67.6052 96.2979L64.7394 90.9157C63.3115 88.2357 62.3784 85.3153 62.0149 82.292L61.5888 78.7294C61.3424 76.7644 62.336 74.8397 64.083 73.9086L64.1032 73.8985C65.4038 73.2038 66.9104 73.1755 68.205 73.7329Z" fill="#FFD524"/>
<path d="M87.1456 93.1874L89.2985 97.2286L69.3873 107.834L67.2344 103.792L87.1456 93.1874Z" fill="#3D4051"/>
<path d="M91.5439 101.443L93.6968 105.484L73.7836 116.089L71.6327 112.05L91.5439 101.443Z" fill="#3D4051"/>
<path d="M101.564 132.107C105.625 139.729 106.661 147.113 103.878 148.595C101.095 150.075 95.5475 145.099 91.4861 137.475C87.4267 129.851 86.3907 122.469 89.1717 120.987C91.9547 119.505 97.5025 124.483 101.564 132.107Z" fill="#3D4051"/>
<path d="M120.092 155.041L122.245 159.081L102.334 169.687L100.181 165.646L120.092 155.041Z" fill="#3D4051"/>
<path d="M124.49 163.297L126.641 167.338L106.73 177.943L104.579 173.902L124.49 163.297Z" fill="#3D4051"/>
<path d="M461.562 415.51L402.342 482.138C400.659 484.029 397.769 484.198 395.863 482.504L385.874 473.628C383.967 471.931 383.798 469.041 385.478 467.151L444.699 400.522C446.379 398.63 449.285 398.444 451.194 400.14L461.181 409.017C463.087 410.713 463.243 413.617 461.562 415.51Z" fill="#008C41"/>
<path d="M451.182 400.144C449.286 398.457 446.382 398.629 444.695 400.525L385.485 467.142C383.798 469.04 383.97 471.944 385.866 473.629L390.871 478.066L456.187 404.577L451.182 400.144Z" fill="#00B255"/>
<path d="M470.155 388.86C468.669 387.539 466.522 387.269 464.755 388.182L461.576 389.822C458.874 391.215 456.452 393.095 454.433 395.369L450.373 399.936L455.925 404.87L461.479 409.805L465.539 405.237C467.558 402.965 469.142 400.34 470.208 397.492L471.464 394.145C472.163 392.281 471.642 390.181 470.155 388.86Z" fill="#008C41"/>
<path d="M471.749 392.652C471.252 392.713 470.78 392.88 470.309 393.11L467.132 394.762C464.424 396.154 462.011 398.042 459.991 400.312L455.942 404.871L450.38 399.929L454.431 395.37C456.449 393.1 458.864 391.212 461.572 389.82L464.765 388.183C466.52 387.27 468.671 387.532 470.152 388.849L470.17 388.863C471.27 389.843 471.822 391.244 471.749 392.652Z" fill="#00B255"/>
<path d="M460.085 417.171L457.044 420.592L440.182 405.605L443.221 402.184L460.085 417.171Z" fill="#3D4051"/>
<path d="M453.87 424.163L450.829 427.584L433.967 412.596L437.007 409.175L453.87 424.163Z" fill="#3D4051"/>
<path d="M428.598 444.211C422.858 450.665 416.297 454.202 413.94 452.107C411.583 450.013 414.325 443.08 420.063 436.625C425.801 430.169 432.364 426.634 434.719 428.729C437.076 430.823 434.336 437.754 428.598 444.211Z" fill="#3D4051"/>
<path d="M413.528 469.552L410.484 472.974L393.625 457.986L396.664 454.563L413.528 469.552Z" fill="#3D4051"/>
<path d="M407.313 476.544L404.272 479.965L387.41 464.978L390.45 461.557L407.313 476.544Z" fill="#3D4051"/>
<path d="M419.281 375.859L333.614 400.506C331.18 401.207 328.647 399.805 327.941 397.352L324.247 384.513C323.542 382.057 324.943 379.525 327.375 378.826L413.042 354.179C415.474 353.478 418.029 354.873 418.734 357.327L422.43 370.168C423.134 372.62 421.713 375.16 419.281 375.859Z" fill="#AE1E0B"/>
<path d="M418.725 357.325C418.022 354.885 415.477 353.477 413.038 354.18L327.382 378.823C324.945 379.524 323.537 382.069 324.24 384.509L326.098 390.931L420.583 363.747L418.725 357.325Z" fill="#FF582A"/>
<path d="M440.791 357.933C440.241 356.021 438.571 354.645 436.59 354.472L433.027 354.157C429.998 353.892 426.946 354.187 424.024 355.027L418.153 356.715L420.207 363.855L422.261 370.994L428.132 369.306C431.054 368.463 433.795 367.092 436.22 365.256L439.07 363.099C440.659 361.898 441.34 359.844 440.791 357.933Z" fill="#AE1E0B"/>
<path d="M440.11 361.988C439.658 361.776 439.167 361.663 438.648 361.606L435.081 361.306C432.048 361.033 428.996 361.338 426.078 362.178L420.217 363.862L418.163 356.713L424.02 355.029C426.94 354.188 429.99 353.884 433.023 354.156L436.598 354.479C438.569 354.645 440.245 356.016 440.795 357.921L440.801 357.941C441.209 359.359 440.922 360.839 440.11 361.988Z" fill="#FF582A"/>
<path d="M417.145 376.474L412.744 377.739L406.506 356.058L410.906 354.794L417.145 376.474Z" fill="#3D4051"/>
<path d="M408.155 379.06L403.755 380.326L397.516 358.646L401.917 357.38L408.155 379.06Z" fill="#3D4051"/>
<path d="M376.078 382.491C367.778 384.88 360.342 384.359 359.469 381.329C358.599 378.3 364.621 373.907 372.924 371.518C381.222 369.131 388.659 369.65 389.531 372.682C390.403 375.711 384.379 380.104 376.078 382.491Z" fill="#3D4051"/>
<path d="M349.794 395.851L345.393 397.117L339.157 375.435L343.557 374.171L349.794 395.851Z" fill="#3D4051"/>
<path d="M340.805 398.438L336.404 399.702L330.167 378.021L334.568 376.755L340.805 398.438Z" fill="#3D4051"/>
<defs>
<linearGradient id="paint0_linear" x1="0.000734382" y1="368.5" x2="811.741" y2="368.5" gradientUnits="userSpaceOnUse">
<stop stop-color="#B4F4CB"/>
<stop offset="1" stop-color="#1DB952"/>
</linearGradient>
<linearGradient id="paint1_linear" x1="445.807" y1="324.615" x2="235.555" y2="564.273" gradientUnits="userSpaceOnUse">
<stop stop-color="#1D5BB9"/>
<stop offset="1" stop-color="#83E2B3"/>
</linearGradient>
</defs>
</svg>
