<svg width="360" height="89" viewBox="0 0 360 89" fill="none" xmlns="http://www.w3.org/2000/svg">
<path d="M67.7751 34.4696C61.5853 19.2508 48.8083 7.3823 32.9647 2.47023C31.0908 1.87397 29.1601 1.39129 27.2009 1.02217C23.7369 0.340732 20.1593 0 16.525 0C13.4017 0 10.3352 0.255544 7.32551 0.766626C7.15515 0.79502 6.95639 0.82341 6.78603 0.851803C2.92453 1.64682 0 5.08243 0 9.19948C0 13.9128 3.80472 17.7175 8.51802 17.7175C9.00071 17.7175 9.45501 17.6891 9.90931 17.6039C10.1648 17.5471 10.392 17.4904 10.6475 17.462C14.2251 16.7521 17.8879 16.3546 21.6926 16.3546C21.8913 16.3546 22.0617 16.3546 22.2604 16.3546C25.0714 16.383 27.8255 16.6102 30.5229 17.0645C46.2813 19.5915 59.8249 28.7626 68.1442 41.6248C69.2799 43.3852 70.3305 45.2024 71.2675 47.0763C70.5576 42.6469 69.3935 38.4447 67.7751 34.4696Z" fill="#1DB954"/>
<path d="M98.5253 15.2475C98.5253 15.1624 98.5253 15.0772 98.5253 14.992C98.4401 12.7205 96.5661 10.9034 94.2662 10.9034C91.9095 10.9034 90.0072 12.8057 90.0072 15.1624C90.0072 15.2475 90.0072 15.3327 90.0072 15.4179C90.0072 15.5315 90.0355 15.645 90.0355 15.7586C90.0355 15.787 90.0356 15.8154 90.064 15.8722C90.1491 16.8944 90.2059 17.9165 90.2059 18.9671C90.2059 20.983 90.0356 22.9421 89.6948 24.8445C88.7294 30.3812 86.4296 35.4352 83.1359 39.7226C80.4953 43.1298 77.23 46.0544 73.5104 48.269C74.1067 48.0987 74.7313 47.9283 75.2992 47.7296C77.4004 47.0197 79.4163 46.1112 81.2903 45.0322C84.9815 42.9311 88.2752 40.1485 90.9158 36.8549C93.7551 33.3625 95.8847 29.3023 97.1624 24.8729C97.7871 22.6866 98.2129 20.4151 98.3833 18.0869C98.4401 17.2067 98.4969 16.3265 98.4969 15.4463C98.5253 15.3327 98.5253 15.2759 98.5253 15.2475Z" fill="#1DB954"/>
<path d="M69.6208 49.0069C65.0778 47.786 60.2793 47.1329 55.3389 47.1329C36.5708 47.1329 19.9607 56.5027 9.96622 70.7845C9.90943 70.8697 9.85265 70.9549 9.79586 71.0401C9.36996 71.6931 9.14284 72.4882 9.14284 73.3116C9.14284 75.6682 11.0452 77.5706 13.4018 77.5706C14.9067 77.5706 16.2412 76.7755 16.9794 75.6114C17.0078 75.5546 17.0646 75.4979 17.093 75.4127C26.7751 59.4272 44.3506 48.7229 64.4248 48.7229C66.1568 48.7797 67.8888 48.8365 69.6208 49.0069Z" fill="#1DB954"/>
<path d="M58.0929 77.2582C58.0929 79.7568 58.3769 82.1986 58.888 84.5553C58.9164 84.6973 58.9448 84.8392 58.9732 84.9812C58.9732 84.9812 58.9732 84.9812 58.9732 85.0096C59.3139 86.2305 60.194 87.2243 61.3298 87.7354C61.8692 87.9625 62.4371 88.1045 63.0617 88.1045C65.4184 88.1045 67.3207 86.2021 67.3207 83.8455C67.3207 83.3912 67.264 82.9653 67.122 82.5394C67.0652 82.369 66.98 82.227 66.9233 82.0567C66.6393 81.2901 66.3838 80.5234 66.1282 79.7568C65.1913 76.6619 64.6802 73.3399 64.6802 69.9327C64.6802 62.9479 66.7813 56.4174 70.4156 51.0226C62.8914 57.2692 58.0929 66.6958 58.0929 77.2582Z" fill="#1DB954"/>
<path d="M90.5181 58.2914C90.4613 58.2914 90.4045 58.2914 90.3193 58.2914C90.2626 58.2914 90.2342 58.2914 90.1774 58.2914C89.7515 58.3198 89.3256 58.3198 88.8997 58.3198C88.8145 58.3198 88.7577 58.3198 88.6725 58.3198C88.3034 58.3198 87.9059 58.2914 87.5368 58.2914C81.8297 57.9223 76.7473 55.3385 73.1413 51.3634C73.0277 51.2214 72.9142 51.1079 72.7722 50.9659C73.1981 52.6979 73.8512 54.3447 74.6746 55.8779C77.6843 61.4147 83.079 65.5033 89.496 66.6675C89.6947 66.6958 89.8651 66.7243 90.0638 66.7526C90.2058 66.781 90.3478 66.781 90.4897 66.781C92.2501 66.781 93.7266 65.7305 94.408 64.2256C94.4932 63.9985 94.5784 63.7713 94.6352 63.5442C94.7203 63.2318 94.7487 62.8627 94.7487 62.522C94.7771 60.1938 92.8464 58.2914 90.5181 58.2914Z" fill="#1DB954"/>
<path d="M130.212 31.8006C126.691 31.8006 124.022 30.8353 122.177 28.8761C120.331 26.917 119.423 24.1344 119.423 20.5285C119.423 18.7397 119.707 17.1497 120.274 15.73C120.842 14.3103 121.609 13.1462 122.574 12.1808C123.54 11.2155 124.732 10.4772 126.067 9.96615C127.43 9.45507 128.878 9.22791 130.468 9.22791C131.376 9.22791 132.228 9.2847 132.966 9.42667C133.705 9.56863 134.358 9.7106 134.926 9.90936C135.493 10.0797 135.948 10.2785 136.345 10.4488C136.714 10.6476 136.998 10.7895 137.169 10.8747L135.749 14.8214C135.096 14.4807 134.301 14.1684 133.421 13.9128C132.54 13.6573 131.518 13.5437 130.411 13.5437C129.673 13.5437 128.934 13.6573 128.196 13.9128C127.486 14.1684 126.833 14.5659 126.294 15.1053C125.754 15.6448 125.3 16.383 124.959 17.2348C124.619 18.115 124.448 19.1656 124.448 20.4149C124.448 21.4087 124.562 22.3456 124.789 23.1974C125.016 24.0492 125.357 24.8159 125.84 25.4405C126.322 26.0652 126.975 26.5478 127.77 26.917C128.565 27.2861 129.531 27.4564 130.638 27.4564C131.348 27.4564 131.973 27.428 132.54 27.3429C133.108 27.2577 133.591 27.1725 134.045 27.0589C134.471 26.9454 134.869 26.8034 135.209 26.6614C135.55 26.5195 135.834 26.3775 136.118 26.2639L137.453 30.1822C136.771 30.6081 135.806 30.9772 134.556 31.3179C133.307 31.6303 131.859 31.8006 130.212 31.8006Z" fill="#011627"/>
<path d="M155.255 23.112C155.255 24.3897 155.056 25.5823 154.687 26.6612C154.318 27.7402 153.778 28.6488 153.069 29.4154C152.359 30.182 151.507 30.7499 150.513 31.1758C149.519 31.6017 148.412 31.8004 147.191 31.8004C145.97 31.8004 144.891 31.6017 143.897 31.1758C142.904 30.7499 142.052 30.182 141.342 29.4154C140.632 28.6488 140.093 27.7402 139.695 26.6612C139.298 25.5823 139.099 24.4181 139.099 23.112C139.099 21.8343 139.298 20.6418 139.695 19.5913C140.093 18.5407 140.661 17.6321 141.37 16.8655C142.08 16.1273 142.932 15.531 143.926 15.1051C144.92 14.6792 145.999 14.4805 147.163 14.4805C148.355 14.4805 149.434 14.6792 150.428 15.1051C151.422 15.531 152.274 16.0989 152.983 16.8655C153.693 17.6037 154.233 18.5123 154.63 19.5913C155.056 20.6418 155.255 21.806 155.255 23.112ZM150.513 23.112C150.513 21.664 150.229 20.5566 149.661 19.7332C149.094 18.9098 148.27 18.5123 147.22 18.5123C146.169 18.5123 145.346 18.9098 144.749 19.7332C144.153 20.5566 143.869 21.6924 143.869 23.112C143.869 24.5317 144.153 25.6958 144.749 26.5193C145.346 27.3711 146.169 27.797 147.22 27.797C148.27 27.797 149.094 27.3711 149.661 26.5193C150.229 25.6958 150.513 24.5317 150.513 23.112Z" fill="#011627"/>
<path d="M158.861 15.474C159.656 15.2469 160.678 15.0197 161.928 14.821C163.177 14.6222 164.483 14.537 165.874 14.537C167.266 14.537 168.43 14.7074 169.367 15.0765C170.304 15.4456 171.013 15.9567 171.581 16.6098C172.121 17.2628 172.518 18.0578 172.745 18.9948C172.973 19.9034 173.086 20.9256 173.086 22.0613V31.346H168.43V22.6292C168.43 21.1243 168.231 20.0738 167.833 19.4491C167.436 18.8244 166.698 18.5121 165.619 18.5121C165.278 18.5121 164.937 18.5405 164.568 18.5689C164.199 18.5973 163.858 18.6257 163.574 18.6825V31.3744H158.918V15.474H158.861Z" fill="#011627"/>
<path d="M177.089 10.846L181.746 10.1078V14.9347H187.34V18.7962H181.746V24.5601C181.746 25.5255 181.916 26.3205 182.257 26.9168C182.598 27.513 183.279 27.797 184.33 27.797C184.841 27.797 185.352 27.7402 185.863 27.655C186.403 27.5698 186.885 27.4278 187.311 27.2575L187.964 30.8918C187.397 31.119 186.772 31.3178 186.09 31.4881C185.409 31.6585 184.557 31.7436 183.563 31.7436C182.286 31.7436 181.235 31.5733 180.412 31.2326C179.588 30.8918 178.907 30.4092 178.424 29.7845C177.913 29.1598 177.572 28.4216 177.373 27.5414C177.175 26.6612 177.089 25.6958 177.089 24.6453V10.846Z" fill="#011627"/>
<path d="M189.725 23.254C189.725 21.8059 189.952 20.5282 190.406 19.4209C190.86 18.3136 191.428 17.405 192.166 16.6951C192.905 15.9569 193.728 15.4174 194.693 15.0483C195.63 14.6792 196.624 14.4805 197.618 14.4805C199.946 14.4805 201.792 15.1903 203.155 16.61C204.518 18.0296 205.171 20.1307 205.171 22.9133C205.171 23.1972 205.171 23.4811 205.142 23.7934C205.114 24.1058 205.114 24.3897 205.085 24.6452H194.523C194.637 25.6106 195.063 26.3488 195.858 26.9167C196.653 27.4846 197.703 27.7685 199.038 27.7685C199.889 27.7685 200.741 27.6833 201.565 27.5414C202.388 27.3994 203.069 27.2006 203.581 26.9735L204.205 30.7498C203.95 30.8634 203.609 31.0054 203.211 31.1189C202.786 31.2325 202.331 31.3461 201.82 31.4596C201.309 31.5448 200.77 31.63 200.173 31.6868C199.577 31.7436 199.009 31.772 198.413 31.772C196.936 31.772 195.659 31.5448 194.552 31.1189C193.473 30.693 192.564 30.0968 191.826 29.3301C191.116 28.5635 190.576 27.6833 190.236 26.6328C189.895 25.5822 189.725 24.4749 189.725 23.254ZM200.656 21.4936C200.628 21.0961 200.571 20.6986 200.457 20.3295C200.344 19.9604 200.173 19.6197 199.918 19.3357C199.691 19.0518 199.378 18.7962 199.009 18.6259C198.64 18.4271 198.186 18.342 197.646 18.342C197.135 18.342 196.681 18.4271 196.312 18.5975C195.943 18.7678 195.63 18.995 195.375 19.3073C195.119 19.5912 194.921 19.932 194.807 20.3295C194.665 20.727 194.58 21.0961 194.523 21.4936H200.656Z" fill="#011627"/>
<path d="M217.778 22.6292C217.778 21.1243 217.579 20.0738 217.21 19.4491C216.812 18.8244 216.159 18.5121 215.222 18.5121C214.938 18.5121 214.626 18.5405 214.313 18.5689C214.001 18.5973 213.689 18.6257 213.405 18.6825V31.3744H208.748V15.5024C209.146 15.3888 209.6 15.2753 210.14 15.1617C210.679 15.0481 211.219 14.9345 211.815 14.8494C212.411 14.7642 213.007 14.679 213.632 14.6222C214.257 14.5654 214.881 14.537 215.478 14.537C216.67 14.537 217.636 14.679 218.374 14.9913C219.112 15.3036 219.708 15.6444 220.191 16.0703C220.844 15.5876 221.611 15.2185 222.491 14.9345C223.343 14.6506 224.138 14.537 224.876 14.537C226.182 14.537 227.261 14.7074 228.113 15.0765C228.965 15.4456 229.618 15.9567 230.129 16.6098C230.64 17.2628 230.98 18.0578 231.151 18.9948C231.35 19.9034 231.435 20.9256 231.435 22.0613V31.346H226.778V22.6292C226.778 21.1243 226.579 20.0738 226.21 19.4491C225.841 18.8244 225.16 18.5121 224.223 18.5121C223.967 18.5121 223.627 18.5689 223.172 18.7109C222.718 18.8244 222.349 18.9948 222.065 19.1652C222.207 19.6479 222.292 20.1589 222.349 20.67C222.377 21.2095 222.406 21.7774 222.406 22.3736V31.346H217.749V22.6292H217.778Z" fill="#011627"/>
<path d="M250.941 23.1409C250.941 24.4186 250.799 25.5543 250.458 26.6049C250.146 27.6554 249.691 28.5356 249.095 29.3022C248.499 30.0405 247.732 30.6367 246.852 31.0626C245.944 31.4885 244.921 31.6873 243.757 31.6873C243.104 31.6873 242.508 31.6305 241.94 31.4885C241.372 31.375 240.833 31.1762 240.322 30.9491V37.1388H235.665V15.5031C236.091 15.3895 236.574 15.2475 237.113 15.1339C237.653 15.0204 238.221 14.9068 238.817 14.85C239.413 14.7648 240.009 14.7081 240.634 14.6513C241.259 14.5945 241.826 14.5661 242.394 14.5661C243.757 14.5661 244.95 14.7648 246.029 15.1623C247.079 15.5599 247.988 16.1277 248.726 16.8659C249.464 17.6042 250.004 18.5128 250.401 19.5633C250.742 20.6423 250.941 21.8348 250.941 23.1409ZM246.199 23.2545C246.199 21.8064 245.887 20.6707 245.234 19.7905C244.581 18.9387 243.644 18.4844 242.366 18.4844C241.94 18.4844 241.571 18.5128 241.202 18.5411C240.861 18.5695 240.549 18.5979 240.322 18.6547V27.0592C240.606 27.2579 241.003 27.3999 241.457 27.5418C241.912 27.6554 242.394 27.7406 242.877 27.7406C245.092 27.7406 246.199 26.2358 246.199 23.2545Z" fill="#011627"/>
<path d="M269.879 23.112C269.879 24.3897 269.681 25.5823 269.311 26.6612C268.942 27.7402 268.403 28.6488 267.693 29.4154C266.983 30.182 266.131 30.7499 265.138 31.1758C264.144 31.6017 263.036 31.8004 261.816 31.8004C260.595 31.8004 259.516 31.6017 258.522 31.1758C257.528 30.7499 256.676 30.182 255.967 29.4154C255.257 28.6488 254.717 27.7402 254.32 26.6612C253.922 25.5823 253.723 24.4181 253.723 23.112C253.723 21.8343 253.922 20.6418 254.32 19.5913C254.717 18.5407 255.285 17.6321 255.995 16.8655C256.705 16.0989 257.557 15.531 258.55 15.1051C259.544 14.6792 260.623 14.4805 261.787 14.4805C262.98 14.4805 264.059 14.6792 265.052 15.1051C266.046 15.531 266.898 16.0989 267.608 16.8655C268.318 17.6037 268.857 18.5123 269.255 19.5913C269.681 20.6418 269.879 21.806 269.879 23.112ZM265.138 23.112C265.138 21.664 264.854 20.5566 264.286 19.7332C263.718 18.9098 262.895 18.5123 261.844 18.5123C260.793 18.5123 259.97 18.9098 259.374 19.7332C258.778 20.5566 258.494 21.6924 258.494 23.112C258.494 24.5317 258.778 25.6958 259.374 26.5193C259.97 27.3711 260.793 27.797 261.844 27.797C262.895 27.797 263.718 27.3711 264.286 26.5193C264.854 25.6958 265.138 24.5317 265.138 23.112Z" fill="#011627"/>
<path d="M283.395 19.0523C282.969 18.9387 282.486 18.8251 281.918 18.7115C281.35 18.598 280.754 18.5412 280.101 18.5412C279.817 18.5412 279.448 18.5696 279.05 18.6264C278.653 18.6831 278.34 18.7399 278.142 18.7967V31.3466H273.485V15.787C274.309 15.5031 275.302 15.2191 276.438 14.9636C277.574 14.708 278.852 14.5661 280.243 14.5661C280.498 14.5661 280.782 14.5945 281.151 14.6229C281.492 14.6513 281.861 14.7081 282.202 14.7364C282.543 14.7932 282.912 14.85 283.253 14.9352C283.593 15.0204 283.906 15.1056 284.161 15.1907L283.395 19.0523Z" fill="#011627"/>
<path d="M292.253 14.4804C293.616 14.4804 294.78 14.6508 295.689 14.9631C296.597 15.2755 297.336 15.7298 297.903 16.2976C298.443 16.8939 298.84 17.5753 299.068 18.4271C299.295 19.2505 299.408 20.1875 299.408 21.2097V30.8918C298.755 31.0338 297.818 31.2042 296.626 31.4029C295.433 31.6017 294.014 31.6869 292.31 31.6869C291.259 31.6869 290.294 31.6017 289.414 31.4029C288.562 31.2042 287.795 30.9202 287.171 30.4943C286.546 30.0684 286.063 29.5006 285.723 28.8191C285.382 28.1377 285.212 27.2859 285.212 26.2921C285.212 25.3267 285.41 24.5317 285.78 23.8503C286.177 23.1972 286.688 22.6578 287.313 22.2602C287.966 21.8627 288.704 21.5788 289.527 21.4084C290.351 21.2381 291.231 21.1529 292.111 21.1529C292.707 21.1529 293.247 21.1813 293.73 21.2381C294.212 21.2949 294.581 21.3517 294.865 21.4368V21.0109C294.865 20.2159 294.638 19.5913 294.156 19.1086C293.673 18.6259 292.849 18.3987 291.657 18.3987C290.862 18.3987 290.095 18.4555 289.3 18.5691C288.534 18.6827 287.852 18.853 287.313 19.0518L286.716 15.3039C287 15.2187 287.313 15.1335 287.739 15.0483C288.136 14.9631 288.59 14.878 289.073 14.7928C289.556 14.7076 290.067 14.6508 290.578 14.594C291.174 14.5088 291.714 14.4804 292.253 14.4804ZM297.194 11.2152L295.462 13.2879L292.338 10.8745L289.215 13.2879L287.426 11.2152L292.338 6.92779L297.194 11.2152ZM292.622 28.1093C293.077 28.1093 293.531 28.1093 293.928 28.0809C294.354 28.0525 294.667 28.0241 294.922 27.9957V24.4749C294.723 24.4465 294.439 24.3897 294.07 24.3614C293.701 24.333 293.361 24.3046 293.048 24.3046C292.622 24.3046 292.196 24.333 291.827 24.3898C291.43 24.4465 291.117 24.5317 290.805 24.6737C290.521 24.8157 290.294 25.0144 290.124 25.2699C289.953 25.5255 289.868 25.8378 289.868 26.2069C289.868 26.9452 290.124 27.4279 290.606 27.7118C291.089 27.9673 291.77 28.1093 292.622 28.1093Z" fill="#011627"/>
<path d="M303.61 15.474C304.405 15.2469 305.428 15.0197 306.677 14.821C307.926 14.6222 309.232 14.537 310.624 14.537C312.015 14.537 313.179 14.7074 314.116 15.0765C315.053 15.4456 315.763 15.9567 316.331 16.6098C316.87 17.2628 317.268 18.0578 317.495 18.9948C317.722 19.9034 317.836 20.9256 317.836 22.0613V31.346H313.151V22.6292C313.151 21.1243 312.952 20.0738 312.554 19.4491C312.157 18.8244 311.419 18.5121 310.34 18.5121C309.999 18.5121 309.658 18.5405 309.289 18.5689C308.92 18.5973 308.579 18.6257 308.295 18.6825V31.3744H303.639V15.474H303.61Z" fill="#011627"/>
<path d="M321.243 23.254C321.243 21.8059 321.47 20.5282 321.924 19.4209C322.379 18.3136 322.947 17.405 323.685 16.6951C324.423 15.9569 325.246 15.4174 326.212 15.0483C327.149 14.6792 328.143 14.4805 329.136 14.4805C331.465 14.4805 333.31 15.1903 334.673 16.61C336.036 18.0296 336.717 20.1307 336.717 22.9133C336.717 23.1972 336.717 23.4811 336.689 23.7934C336.661 24.1058 336.661 24.3897 336.632 24.6452H326.07C326.183 25.6106 326.609 26.3488 327.404 26.9167C328.199 27.4846 329.25 27.7685 330.584 27.7685C331.436 27.7685 332.288 27.6833 333.111 27.5414C333.935 27.3994 334.616 27.2006 335.127 26.9735L335.752 30.7498C335.496 30.8634 335.156 31.0054 334.758 31.1189C334.332 31.2325 333.878 31.3461 333.367 31.4596C332.856 31.5448 332.316 31.63 331.72 31.6868C331.124 31.7436 330.556 31.772 329.96 31.772C328.483 31.772 327.206 31.5448 326.098 31.1189C324.991 30.693 324.111 30.0968 323.372 29.3301C322.663 28.5635 322.123 27.6833 321.782 26.6328C321.413 25.5822 321.243 24.4749 321.243 23.254ZM332.174 21.4936C332.146 21.0961 332.089 20.6986 331.976 20.3295C331.862 19.9604 331.692 19.6197 331.436 19.3357C331.209 19.0518 330.897 18.7962 330.528 18.6259C330.158 18.4271 329.704 18.342 329.165 18.342C328.654 18.342 328.199 18.4271 327.83 18.5975C327.461 18.7678 327.149 18.995 326.893 19.3073C326.638 19.5912 326.439 19.932 326.325 20.3295C326.183 20.727 326.098 21.0961 326.041 21.4936H332.174Z" fill="#011627"/>
<path d="M355.627 23.112C355.627 24.3897 355.428 25.5823 355.059 26.6612C354.69 27.7402 354.151 28.6488 353.441 29.4154C352.731 30.182 351.879 30.7499 350.885 31.1758C349.892 31.6017 348.784 31.8004 347.563 31.8004C346.343 31.8004 345.264 31.6017 344.27 31.1758C343.276 30.7499 342.424 30.182 341.714 29.4154C341.005 28.6488 340.465 27.7402 340.068 26.6612C339.67 25.5823 339.471 24.4181 339.471 23.112C339.471 21.8343 339.67 20.6418 340.068 19.5913C340.465 18.5407 341.033 17.6321 341.743 16.8655C342.453 16.0989 343.304 15.531 344.298 15.1051C345.292 14.6792 346.371 14.4805 347.535 14.4805C348.728 14.4805 349.807 14.6792 350.8 15.1051C351.794 15.531 352.646 16.0989 353.356 16.8655C354.066 17.6037 354.605 18.5123 355.003 19.5913C355.428 20.6418 355.627 21.806 355.627 23.112ZM350.885 23.112C350.885 21.664 350.602 20.5566 350.034 19.7332C349.466 18.9098 348.642 18.5123 347.592 18.5123C346.541 18.5123 345.718 18.9098 345.122 19.7332C344.525 20.5566 344.241 21.6924 344.241 23.112C344.241 24.5317 344.525 25.6958 345.122 26.5193C345.718 27.3711 346.541 27.797 347.592 27.797C348.642 27.797 349.466 27.3711 350.034 26.5193C350.602 25.6958 350.885 24.5317 350.885 23.112Z" fill="#011627"/>
<path d="M164.568 54.2917H159.769V58.2384H165.363V59.4309H158.321V48.3291H165.306V49.5216H159.798V53.0992H164.596V54.2917H164.568Z" fill="#011627"/>
<path d="M171.752 57.2414C171.752 56.8723 171.61 56.56 171.326 56.3612C171.042 56.1625 170.531 55.9637 169.821 55.8218C169.111 55.6798 168.543 55.481 168.117 55.2823C167.691 55.0551 167.379 54.828 167.18 54.5157C166.982 54.2317 166.868 53.8626 166.868 53.4651C166.868 52.7837 167.152 52.2158 167.72 51.7615C168.288 51.3072 169.026 51.0516 169.906 51.0516C170.843 51.0516 171.61 51.3072 172.177 51.7899C172.745 52.2726 173.058 52.8972 173.058 53.6355H171.638C171.638 53.238 171.468 52.9256 171.155 52.6417C170.815 52.3578 170.417 52.2158 169.906 52.2158C169.395 52.2158 168.997 52.3294 168.714 52.5565C168.43 52.7837 168.288 53.0676 168.288 53.4367C168.288 53.7774 168.43 54.033 168.685 54.2033C168.941 54.3737 169.452 54.5441 170.133 54.686C170.843 54.8564 171.411 55.0268 171.837 55.2539C172.263 55.4811 172.603 55.7366 172.802 56.0489C173.001 56.3612 173.114 56.7304 173.114 57.1847C173.114 57.9229 172.83 58.5192 172.234 58.9451C171.638 59.3994 170.871 59.5981 169.934 59.5981C169.281 59.5981 168.685 59.4845 168.174 59.2574C167.663 59.0302 167.265 58.6895 166.982 58.2636C166.698 57.8377 166.556 57.3834 166.556 56.9007H167.975C168.004 57.3834 168.202 57.7525 168.543 58.0365C168.884 58.3204 169.367 58.4624 169.934 58.4624C170.474 58.4624 170.9 58.3488 171.212 58.15C171.581 57.8945 171.752 57.6106 171.752 57.2414Z" fill="#011627"/>
<path d="M176.919 49.177V51.1646H178.453V52.2435H176.919V57.3543C176.919 57.695 176.976 57.9222 177.118 58.0925C177.26 58.2629 177.487 58.348 177.828 58.348C177.998 58.348 178.225 58.3197 178.509 58.2629V59.3986C178.14 59.5122 177.771 59.5406 177.43 59.5406C176.806 59.5406 176.323 59.3418 176.011 58.9727C175.698 58.6036 175.528 58.0357 175.528 57.3543V52.2435H174.023V51.1646H175.528V49.177H176.919Z" fill="#011627"/>
<path d="M184.075 52.4423C183.848 52.4139 183.621 52.3855 183.393 52.3855C182.456 52.3855 181.832 52.783 181.519 53.578V59.427H180.099V51.1646H181.462L181.491 52.13C181.945 51.3917 182.598 51.0226 183.45 51.0226C183.734 51.0226 183.933 51.051 184.075 51.1362V52.4423Z" fill="#011627"/>
<path d="M190.179 59.4272C190.094 59.2568 190.037 58.9729 189.98 58.547C189.327 59.2284 188.532 59.5691 187.623 59.5691C186.8 59.5691 186.147 59.342 185.636 58.8877C185.125 58.4334 184.841 57.8371 184.841 57.1273C184.841 56.2755 185.181 55.594 185.835 55.1397C186.488 54.657 187.396 54.4299 188.589 54.4299H189.952V53.7768C189.952 53.2941 189.81 52.8966 189.497 52.6127C189.213 52.3287 188.759 52.1868 188.191 52.1868C187.68 52.1868 187.254 52.3003 186.913 52.5559C186.573 52.8114 186.402 53.1238 186.402 53.4645H184.983C184.983 53.0386 185.125 52.6411 185.409 52.272C185.693 51.8744 186.09 51.5905 186.601 51.3633C187.112 51.1362 187.652 51.0226 188.248 51.0226C189.185 51.0226 189.952 51.2498 190.491 51.7325C191.031 52.2152 191.315 52.8682 191.343 53.6916V57.4964C191.343 58.263 191.428 58.8593 191.627 59.3136V59.4272H190.179ZM187.822 58.3482C188.276 58.3482 188.674 58.2346 189.071 58.0075C189.469 57.7803 189.753 57.468 189.923 57.1273V55.4237H188.816C187.084 55.4237 186.232 55.9347 186.232 56.9285C186.232 57.3828 186.374 57.7235 186.686 57.9791C186.999 58.2346 187.368 58.3482 187.822 58.3482Z" fill="#011627"/>
<path d="M195.488 49.177V51.1646H197.022V52.2435H195.488V57.3543C195.488 57.695 195.545 57.9222 195.687 58.0925C195.829 58.2629 196.056 58.348 196.397 58.348C196.567 58.348 196.795 58.3197 197.078 58.2629V59.3986C196.709 59.5122 196.34 59.5406 195.999 59.5406C195.375 59.5406 194.892 59.3418 194.58 58.9727C194.267 58.6036 194.097 58.0357 194.097 57.3543V52.2435H192.592V51.1646H194.097V49.177H195.488Z" fill="#011627"/>
<path d="M202.104 59.5697C200.997 59.5697 200.088 59.2006 199.379 58.4624C198.669 57.7241 198.328 56.7587 198.328 55.5094V55.2539C198.328 54.4304 198.498 53.6922 198.811 53.0675C199.123 52.4145 199.549 51.9318 200.117 51.5627C200.685 51.1936 201.281 51.0232 201.934 51.0232C203.013 51.0232 203.837 51.3639 204.433 52.0738C205.029 52.7836 205.313 53.8058 205.313 55.1119V55.7082H199.719C199.748 56.5316 199.975 57.1846 200.429 57.6673C200.883 58.1784 201.451 58.4056 202.161 58.4056C202.672 58.4056 203.07 58.292 203.439 58.0932C203.78 57.8945 204.092 57.6105 204.348 57.2982L205.199 57.9797C204.518 59.0586 203.467 59.5697 202.104 59.5697ZM201.906 52.1873C201.338 52.1873 200.855 52.3861 200.486 52.812C200.088 53.2379 199.861 53.8058 199.776 54.544H203.922V54.4304C203.893 53.7206 203.695 53.1527 203.354 52.7552C202.985 52.3861 202.502 52.1873 201.906 52.1873ZM202.615 47.7295H204.319L202.275 49.9726H201.139L202.615 47.7295Z" fill="#011627"/>
<path d="M206.619 55.2249C206.619 53.9472 206.902 52.925 207.499 52.1584C208.095 51.3917 208.89 51.0226 209.855 51.0226C210.849 51.0226 211.644 51.3917 212.212 52.1016L212.269 51.193H213.547V59.2568C213.547 60.3358 213.234 61.1592 212.61 61.7839C211.985 62.4085 211.133 62.6924 210.054 62.6924C209.458 62.6924 208.89 62.5789 208.322 62.3233C207.754 62.0678 207.328 61.7271 207.016 61.2728L207.754 60.4209C208.351 61.1592 209.089 61.5283 209.969 61.5283C210.651 61.5283 211.19 61.3296 211.588 60.9604C211.985 60.5629 212.155 60.0234 212.155 59.342V58.6321C211.588 59.2852 210.821 59.5975 209.855 59.5975C208.89 59.5975 208.095 59.2 207.499 58.4334C206.902 57.6384 206.619 56.5878 206.619 55.2249ZM208.038 55.3953C208.038 56.3323 208.237 57.0705 208.606 57.5816C208.975 58.0927 209.515 58.3766 210.196 58.3766C211.076 58.3766 211.73 57.9791 212.155 57.1557V53.3793C211.73 52.5843 211.076 52.1868 210.225 52.1868C209.543 52.1868 209.004 52.4423 208.606 52.9818C208.209 53.5497 208.038 54.3447 208.038 55.3953Z" fill="#011627"/>
<path d="M215.705 48.9789C215.705 48.7518 215.761 48.553 215.903 48.411C216.045 48.2407 216.244 48.1839 216.528 48.1839C216.812 48.1839 217.011 48.2691 217.153 48.411C217.295 48.5814 217.38 48.7518 217.38 48.9789C217.38 49.206 217.295 49.4048 217.153 49.5468C217.011 49.6887 216.812 49.7739 216.528 49.7739C216.244 49.7739 216.045 49.6887 215.903 49.5468C215.761 49.4048 215.705 49.206 215.705 48.9789ZM217.238 59.4277H215.818V51.1652H217.238V59.4277Z" fill="#011627"/>
<path d="M224.592 59.4272C224.507 59.2568 224.45 58.9729 224.393 58.547C223.74 59.2284 222.945 59.5691 222.036 59.5691C221.213 59.5691 220.56 59.342 220.049 58.8877C219.538 58.4334 219.254 57.8371 219.254 57.1273C219.254 56.2755 219.595 55.594 220.248 55.1397C220.901 54.657 221.809 54.4299 223.002 54.4299H224.365V53.7768C224.365 53.2941 224.223 52.8966 223.91 52.6127C223.598 52.3287 223.172 52.1868 222.604 52.1868C222.093 52.1868 221.667 52.3003 221.327 52.5559C220.986 52.8114 220.816 53.1238 220.816 53.4645H219.396C219.396 53.0386 219.538 52.6411 219.822 52.272C220.106 51.8744 220.503 51.5905 221.014 51.3633C221.525 51.1362 222.065 51.0226 222.661 51.0226C223.598 51.0226 224.365 51.2498 224.904 51.7325C225.444 52.2152 225.728 52.8682 225.756 53.6916V57.4964C225.756 58.263 225.841 58.8593 226.04 59.3136V59.4272H224.592ZM222.235 58.3482C222.69 58.3482 223.087 58.2346 223.485 58.0075C223.882 57.7803 224.166 57.468 224.336 57.1273V55.4237H223.229C221.497 55.4237 220.645 55.9347 220.645 56.9285C220.645 57.3828 220.787 57.7235 221.099 57.9791C221.412 58.2346 221.781 58.3482 222.235 58.3482Z" fill="#011627"/>
<path d="M235.268 59.569C234.16 59.569 233.252 59.1999 232.542 58.4617C231.832 57.7234 231.491 56.758 231.491 55.5087V55.2532C231.491 54.4298 231.662 53.6915 231.974 53.0669C232.286 52.4138 232.712 51.9311 233.28 51.562C233.848 51.1929 234.444 51.0225 235.097 51.0225C236.176 51.0225 237 51.3632 237.596 52.0731C238.192 52.7829 238.476 53.8051 238.476 55.1112V55.7075H232.883C232.911 56.5309 233.138 57.184 233.593 57.6667C234.047 58.1494 234.615 58.4049 235.324 58.4049C235.836 58.4049 236.233 58.2913 236.602 58.0926C236.943 57.8938 237.255 57.6099 237.511 57.2975L238.363 57.979C237.71 59.0579 236.659 59.569 235.268 59.569ZM235.097 52.1866C234.53 52.1866 234.047 52.3854 233.678 52.8113C233.28 53.2372 233.053 53.8051 232.968 54.5433H237.113V54.4298C237.085 53.7199 236.886 53.152 236.545 52.7545C236.148 52.3854 235.694 52.1866 235.097 52.1866Z" fill="#011627"/>
<path d="M248.3 54.9408H245.688V59.427H244.212V48.3251H247.874C249.124 48.3251 250.089 48.6091 250.771 49.1769C251.452 49.7448 251.793 50.5682 251.793 51.6756C251.793 52.357 251.594 52.9817 251.225 53.4928C250.856 54.0038 250.345 54.4013 249.663 54.6569L252.275 59.3702V59.4554H250.714L248.3 54.9408ZM245.688 53.7483H247.931C248.669 53.7483 249.237 53.5495 249.663 53.1804C250.089 52.8113 250.316 52.3002 250.316 51.6756C250.316 50.9941 250.118 50.4546 249.692 50.0855C249.294 49.7164 248.698 49.546 247.931 49.5177H245.688V53.7483Z" fill="#011627"/>
<path d="M257.046 59.569C255.938 59.569 255.03 59.1999 254.32 58.4617C253.61 57.7234 253.269 56.758 253.269 55.5087V55.2532C253.269 54.4298 253.44 53.6915 253.752 53.0669C254.064 52.4138 254.49 51.9311 255.058 51.562C255.626 51.1929 256.222 51.0225 256.875 51.0225C257.954 51.0225 258.778 51.3632 259.374 52.0731C259.97 52.7829 260.254 53.8051 260.254 55.1112V55.7075H254.66C254.689 56.5309 254.916 57.184 255.37 57.6667C255.825 58.1777 256.393 58.4049 257.102 58.4049C257.613 58.4049 258.011 58.2913 258.38 58.0926C258.721 57.8938 259.033 57.6099 259.289 57.2975L260.14 57.979C259.459 59.0579 258.408 59.569 257.046 59.569ZM256.847 52.1866C256.279 52.1866 255.796 52.3854 255.427 52.8113C255.03 53.2372 254.802 53.8051 254.717 54.5433H258.863V54.4298C258.834 53.7199 258.636 53.152 258.295 52.7545C257.926 52.3854 257.443 52.1866 256.847 52.1866Z" fill="#011627"/>
<path d="M266.699 57.2414C266.699 56.8722 266.557 56.5599 266.273 56.3611C265.989 56.1624 265.478 55.9636 264.768 55.8217C264.058 55.6797 263.491 55.481 263.065 55.2822C262.639 55.055 262.326 54.8279 262.128 54.5156C261.929 54.2316 261.815 53.8625 261.815 53.465C261.815 52.7836 262.099 52.2157 262.667 51.7614C263.235 51.3071 263.973 51.0516 264.853 51.0516C265.79 51.0516 266.557 51.3071 267.125 51.7898C267.721 52.2725 268.005 52.8971 268.005 53.6354H266.585C266.585 53.2379 266.415 52.9255 266.103 52.6416C265.762 52.3577 265.365 52.2157 264.853 52.2157C264.342 52.2157 263.945 52.3293 263.661 52.5564C263.377 52.7836 263.235 53.0675 263.235 53.4366C263.235 53.7773 263.377 54.0329 263.633 54.2032C263.888 54.3736 264.399 54.544 265.081 54.6859C265.79 54.8563 266.358 55.0267 266.784 55.2538C267.21 55.481 267.551 55.7365 267.75 56.0488C267.948 56.3612 268.062 56.7303 268.062 57.1846C268.062 57.9228 267.778 58.5191 267.182 58.945C266.585 59.3709 265.819 59.598 264.882 59.598C264.229 59.598 263.633 59.4844 263.121 59.2573C262.61 59.0301 262.213 58.6894 261.929 58.2635C261.645 57.8376 261.503 57.3833 261.503 56.9006H262.923C262.951 57.3833 263.15 57.7524 263.491 58.0364C263.831 58.3203 264.314 58.4623 264.882 58.4623C265.421 58.4623 265.847 58.3487 266.16 58.1499C266.472 57.9512 266.699 57.6105 266.699 57.2414Z" fill="#011627"/>
<path d="M275.018 58.6039C274.479 59.257 273.655 59.5693 272.605 59.5693C271.725 59.5693 271.043 59.3138 270.589 58.8027C270.135 58.2916 269.908 57.5249 269.879 56.5312V51.1647H271.299V56.5027C271.299 57.7521 271.81 58.3768 272.832 58.3768C273.911 58.3768 274.621 57.9792 274.99 57.1842V51.1647H276.41V59.4273H275.075L275.018 58.6039Z" fill="#011627"/>
<path d="M280.072 59.4274H278.653V47.7009H280.072V59.4274Z" fill="#011627"/>
<path d="M284.246 49.1769V51.1644H285.78V52.2434H284.246V57.3542C284.246 57.6949 284.303 57.922 284.445 58.0924C284.587 58.2628 284.814 58.3479 285.155 58.3479C285.325 58.3479 285.553 58.3195 285.836 58.2628V59.3985C285.467 59.5121 285.098 59.5405 284.758 59.5405C284.133 59.5405 283.65 59.3417 283.338 58.9726C283.026 58.6035 282.855 58.0356 282.855 57.3542V52.2434H281.35V51.1644H282.855V49.1769H284.246Z" fill="#011627"/>
<path d="M292.537 59.4271C292.452 59.2567 292.395 58.9728 292.338 58.5469C291.685 59.2283 290.89 59.569 289.982 59.569C289.158 59.569 288.505 59.3419 287.966 58.8876C287.455 58.4333 287.171 57.837 287.171 57.1272C287.171 56.2754 287.512 55.5939 288.165 55.1396C288.818 54.6569 289.726 54.4298 290.919 54.4298H292.282V53.7767C292.282 53.294 292.14 52.8965 291.827 52.6126C291.515 52.3286 291.089 52.1866 290.521 52.1866C290.01 52.1866 289.584 52.3002 289.244 52.5558C288.903 52.8113 288.733 53.1236 288.733 53.4644H287.313C287.313 53.0385 287.455 52.641 287.739 52.2718C288.023 51.8743 288.42 51.5904 288.931 51.3632C289.442 51.1361 289.982 51.0225 290.578 51.0225C291.515 51.0225 292.282 51.2497 292.821 51.7324C293.361 52.215 293.645 52.8681 293.673 53.6915V57.4963C293.673 58.2629 293.758 58.8592 293.957 59.3135V59.4271H292.537ZM290.181 58.3481C290.635 58.3481 291.032 58.2345 291.43 58.0074C291.827 57.7802 292.111 57.4679 292.282 57.1272V55.4235H291.174C289.442 55.4235 288.591 55.9346 288.591 56.9284C288.591 57.3827 288.733 57.7234 289.045 57.979C289.357 58.2345 289.726 58.3481 290.181 58.3481Z" fill="#011627"/>
<path d="M295.576 55.2253C295.576 53.9476 295.888 52.9538 296.484 52.1588C297.08 51.3922 297.875 50.9947 298.841 50.9947C299.806 50.9947 300.573 51.3354 301.141 51.9884V47.701H302.56V59.4276H301.254L301.197 58.5474C300.63 59.2288 299.835 59.5979 298.841 59.5979C297.875 59.5979 297.109 59.2004 296.513 58.4338C295.916 57.6388 295.604 56.6166 295.604 55.3673V55.2253H295.576ZM296.995 55.3957C296.995 56.3327 297.194 57.0709 297.563 57.582C297.961 58.1215 298.472 58.377 299.153 58.377C300.062 58.377 300.715 57.9795 301.112 57.1845V53.4081C300.686 52.6415 300.033 52.244 299.182 52.244C298.5 52.244 297.961 52.4995 297.563 53.039C297.194 53.5501 296.995 54.3451 296.995 55.3957Z" fill="#011627"/>
<path d="M304.377 55.2251C304.377 54.4301 304.548 53.6919 304.86 53.0388C305.172 52.3858 305.626 51.9031 306.194 51.534C306.762 51.1933 307.415 50.9945 308.125 50.9945C309.261 50.9945 310.169 51.392 310.851 52.1586C311.532 52.9253 311.901 53.9758 311.901 55.2535V55.3387C311.901 56.1337 311.759 56.8719 311.447 57.4966C311.135 58.1212 310.709 58.6323 310.141 59.0014C309.573 59.3705 308.92 59.5409 308.182 59.5409C307.075 59.5409 306.166 59.1434 305.456 58.3768C304.775 57.6101 304.406 56.5596 304.406 55.2819V55.2251H304.377ZM305.768 55.3955C305.768 56.3041 305.967 57.0423 306.393 57.6101C306.819 58.178 307.387 58.4335 308.097 58.4335C308.807 58.4335 309.374 58.1496 309.8 57.5817C310.226 57.0139 310.425 56.2473 310.425 55.2251C310.425 54.3165 310.198 53.5783 309.772 53.0388C309.346 52.4993 308.778 52.187 308.068 52.187C307.358 52.187 306.819 52.471 306.393 53.0104C305.996 53.5783 305.768 54.3733 305.768 55.3955Z" fill="#011627"/>
</svg>
